<?xml version="1.0" encoding="UTF-8" standalone="no"?>
<svg
   viewBox="0 0 260 130"
   version="1.1"
   id="svg22"
   sodipodi:docname="icon-blockly-carousel.svg"
   width="260"
   height="130"
   inkscape:version="1.3.2 (091e20e, 2023-11-25)"
   inkscape:export-filename="icon-blockly-carousel.png"
   inkscape:export-xdpi="147.69231"
   inkscape:export-ydpi="147.69231"
   xmlns:inkscape="http://www.inkscape.org/namespaces/inkscape"
   xmlns:sodipodi="http://sodipodi.sourceforge.net/DTD/sodipodi-0.dtd"
   xmlns="http://www.w3.org/2000/svg"
   xmlns:svg="http://www.w3.org/2000/svg">
  <sodipodi:namedview
     id="namedview24"
     pagecolor="#ffffff"
     bordercolor="#666666"
     borderopacity="1.0"
     inkscape:pageshadow="2"
     inkscape:pageopacity="0.0"
     inkscape:pagecheckerboard="true"
     showgrid="false"
     width="200px"
     inkscape:zoom="1.9115966"
     inkscape:cx="138.10445"
     inkscape:cy="61.728505"
     inkscape:window-width="1440"
     inkscape:window-height="751"
     inkscape:window-x="0"
     inkscape:window-y="25"
     inkscape:window-maximized="1"
     inkscape:current-layer="text1"
     inkscape:snap-to-guides="true"
     inkscape:snap-page="true"
     inkscape:showpageshadow="2"
     inkscape:deskcolor="#d1d1d1" />
  <defs
     id="defs4">
    <style
       id="style2">
      .a {
        fill: #cff;
      }

      .b {
        fill: #ffc;
      }

      .c {
        opacity: 0.2;
      }

      .d {
        fill: #fff;
      }

      .e {
        opacity: 0.4;
      }
    </style>
  </defs>
  <g
     inkscape:groupmode="layer"
     id="layer3"
     inkscape:label="texte"
     style="display:inline">
    <g
       id="text1"
       style="font-size:40px;line-height:1.05;display:inline"
       inkscape:label="chemin"
       aria-label="Super&#10;Coding&#10;Ball">
      <path
         style="font-weight:500;font-family:'Helvetica Neue';-inkscape-font-specification:'Helvetica Neue Medium';text-align:center;text-anchor:middle"
         d="m 146.61348,26.575486 q 0,1.64 0.56,2.8 0.56,1.16 1.56,1.92 1,0.72 2.28,1.08 1.32,0.32 2.84,0.32 1.64,0 2.8,-0.36 1.16,-0.4 1.88,-1 0.72,-0.6 1.04,-1.36 0.32,-0.8 0.32,-1.6 0,-1.64 -0.76,-2.4 -0.72,-0.8 -1.6,-1.12 -1.52,-0.56 -3.56,-1.04 -2,-0.52 -4.96,-1.32 -1.84,-0.48 -3.08,-1.24 -1.2,-0.8 -1.92,-1.76 -0.72,-0.96 -1.04,-2.04 -0.28,-1.08 -0.28,-2.2 0,-2.16 0.88,-3.72 0.92,-1.6000003 2.4,-2.6400003 1.48,-1.04 3.36,-1.52 1.88,-0.52 3.8,-0.52 2.24,0 4.2,0.6 2,0.56 3.48,1.72 1.52,1.1600003 2.4,2.8800003 0.88,1.68 0.88,3.92 h -5 q -0.2,-2.76 -1.88,-3.88 -1.68,-1.16 -4.28,-1.16 -0.88,0 -1.8,0.2 -0.92,0.16 -1.68,0.6 -0.76,0.4 -1.28,1.12 -0.48,0.72 -0.48,1.8 0,1.52 0.92,2.4 0.96,0.84 2.48,1.28 0.16,0.04 1.24,0.36 1.12,0.28 2.48,0.64 1.36,0.36 2.64,0.72 1.32,0.32 1.88,0.48 1.4,0.44 2.44,1.2 1.04,0.76 1.72,1.76 0.72,0.96 1.04,2.08 0.36,1.12 0.36,2.24 0,2.4 -1,4.12 -0.96,1.68 -2.56,2.76 -1.6,1.08 -3.64,1.56 -2.04,0.52 -4.16,0.52 -2.44,0 -4.6,-0.6 -2.16,-0.6 -3.76,-1.84 -1.6,-1.24 -2.56,-3.16 -0.96,-1.96 -1,-4.6 z m 40.16003,9.52 h -4.48 v -2.88 h -0.08 q -0.84,1.56 -2.52,2.52 -1.64,0.92 -3.36,0.92 -4.08,0 -5.92,-2 -1.8,-2.04 -1.8,-6.12 v -13.12 h 4.56 v 12.68 q 0,2.72 1.04,3.84 1.04,1.12 2.92,1.12 1.44,0 2.4,-0.44 0.96,-0.44 1.56,-1.16 0.6,-0.76 0.84,-1.8 0.28,-1.04 0.28,-2.24 v -12 h 4.56 z m 4.91997,-20.68 h 4.32 v 2.8 h 0.08 q 0.96,-1.8 2.68,-2.56 1.72,-0.8 3.72,-0.8 2.44,0 4.24,0.88 1.84,0.84 3.04,2.36 1.2,1.48 1.8,3.48 0.6,2 0.6,4.28 0,2.08 -0.56,4.04 -0.52,1.96 -1.64,3.48 -1.08,1.48 -2.76,2.4 -1.68,0.88 -3.96,0.88 -1,0 -2,-0.2 -1,-0.16 -1.92,-0.56 -0.92,-0.4 -1.72,-1 -0.76,-0.64 -1.28,-1.48 h -0.08 v 10.32 h -4.56 z m 15.92,10.36 q 0,-1.4 -0.36,-2.72 -0.36,-1.32 -1.08,-2.32 -0.72,-1.04 -1.8,-1.64 -1.08,-0.64 -2.48,-0.64 -2.88,0 -4.36,2 -1.44,2 -1.44,5.32 0,1.56 0.36,2.92 0.4,1.32 1.16,2.28 0.76,0.96 1.8,1.52 1.08,0.56 2.48,0.56 1.56,0 2.64,-0.64 1.08,-0.64 1.76,-1.64 0.72,-1.04 1,-2.32 0.32,-1.32 0.32,-2.68 z m 22.60001,-1.84 q -0.08,-1.08 -0.48,-2.08 -0.36,-1 -1.04,-1.72 -0.64,-0.76 -1.6,-1.2 -0.92,-0.48 -2.08,-0.48 -1.2,0 -2.2,0.44 -0.96,0.4 -1.68,1.16 -0.68,0.72 -1.12,1.72 -0.4,1 -0.44,2.16 z m -10.64,3 q 0,1.2 0.32,2.32 0.36,1.12 1.04,1.96 0.68,0.84 1.72,1.36 1.04,0.48 2.48,0.48 2,0 3.2,-0.84 1.24,-0.88 1.84,-2.6 h 4.32 q -0.36,1.68 -1.24,3 -0.88,1.32 -2.12,2.24 -1.24,0.88 -2.8,1.32 -1.52,0.48 -3.2,0.48 -2.44,0 -4.32,-0.8 -1.88,-0.8 -3.2,-2.24 -1.28,-1.44 -1.96,-3.44 -0.64,-2 -0.64,-4.4 0,-2.2 0.68,-4.16 0.72,-2 2,-3.48 1.32,-1.52 3.16,-2.4 1.84,-0.88 4.16,-0.88 2.44,0 4.36,1.04 1.96,1 3.24,2.68 1.28,1.68 1.84,3.88 0.6,2.16 0.32,4.48 z m 18.67999,-11.52 h 4.28 v 4 h 0.08 q 0.2,-0.84 0.76,-1.64 0.6,-0.8 1.4,-1.44 0.84,-0.68 1.84,-1.08 1,-0.4 2.04,-0.4 0.8,0 1.08,0.04 0.32,0.04 0.64,0.08 v 4.4 q -0.48,-0.08 -1,-0.12 -0.48,-0.08 -0.96,-0.08 -1.16,0 -2.2,0.48 -1,0.44 -1.76,1.36 -0.76,0.88 -1.2,2.2 -0.44,1.32 -0.44,3.04 v 9.84 h -4.56 z"
         id="path7" />
      <path
         style="font-weight:500;font-family:'Helvetica Neue';-inkscape-font-specification:'Helvetica Neue Medium';text-align:center;text-anchor:middle"
         d="m 150.75347,59.840392 q -0.32,-1.24 -0.88,-2.28 -0.56,-1.04 -1.44,-1.8 -0.88,-0.76 -2.08,-1.16 -1.16,-0.44 -2.72,-0.44 -2.28,0 -3.96,0.92 -1.64,0.92 -2.68,2.48 -1.04,1.52 -1.56,3.48 -0.48,1.96 -0.48,4 0,2.04 0.48,4 0.52,1.96 1.56,3.52 1.04,1.52 2.68,2.44 1.68,0.92 3.96,0.92 1.68,0 2.96,-0.56 1.28,-0.6 2.2,-1.6 0.92,-1.04 1.44,-2.4 0.52,-1.36 0.68,-2.92 h 4.88 q -0.16,2.56 -1.12,4.68 -0.92,2.12 -2.52,3.68 -1.6,1.52 -3.76,2.36 -2.16,0.84 -4.76,0.84 -3.2,0 -5.76,-1.16 -2.52,-1.2 -4.28,-3.24 -1.76,-2.04 -2.72,-4.76 -0.92,-2.72 -0.92,-5.8 0,-3.04 0.92,-5.76 0.96,-2.72 2.72,-4.76 1.76,-2.04 4.28,-3.24 2.56,-1.2 5.76,-1.2 2.4,0 4.52,0.68 2.12,0.64 3.72,1.92 1.64,1.24 2.64,3.04 1,1.8 1.24,4.12 z m 18.44001,20.04 q -2.48,0 -4.44,-0.8 -1.92,-0.84 -3.28,-2.28 -1.32,-1.44 -2.04,-3.44 -0.68,-2 -0.68,-4.4 0,-2.36 0.68,-4.36 0.72,-2 2.04,-3.44 1.36,-1.44 3.28,-2.24 1.96,-0.84 4.44,-0.84 2.48,0 4.4,0.84 1.96,0.8 3.28,2.24 1.36,1.44 2.04,3.44 0.72,2 0.72,4.36 0,2.4 -0.72,4.4 -0.68,2 -2.04,3.44 -1.32,1.44 -3.28,2.28 -1.92,0.8 -4.4,0.8 z m 0,-3.6 q 1.52,0 2.64,-0.64 1.12,-0.64 1.84,-1.68 0.72,-1.04 1.04,-2.32 0.36,-1.32 0.36,-2.68 0,-1.32 -0.36,-2.64 -0.32,-1.32 -1.04,-2.32 -0.72,-1.04 -1.84,-1.68 -1.12,-0.64 -2.64,-0.64 -1.52,0 -2.64,0.64 -1.12,0.64 -1.84,1.68 -0.72,1 -1.08,2.32 -0.32,1.32 -0.32,2.64 0,1.36 0.32,2.68 0.36,1.28 1.08,2.32 0.72,1.04 1.84,1.68 1.12,0.64 2.64,0.64 z m 33.72001,3.04 h -4.32 v -2.8 h -0.08 q -0.92,1.8 -2.68,2.6 -1.76,0.76 -3.72,0.76 -2.44,0 -4.28,-0.84 -1.8,-0.88 -3,-2.36 -1.2,-1.48 -1.8,-3.48 -0.6,-2.04 -0.6,-4.36 0,-2.8 0.76,-4.84 0.76,-2.04 2,-3.36 1.28,-1.32 2.88,-1.92 1.64,-0.64 3.32,-0.64 0.96,0 1.96,0.2 1,0.16 1.92,0.56 0.92,0.4 1.68,1.04 0.8,0.6 1.32,1.44 h 0.08 v -10.56 h 4.56 z m -15.92,-10.12 q 0,1.32 0.32,2.6 0.36,1.28 1.04,2.28 0.72,1 1.8,1.6 1.08,0.6 2.56,0.6 1.52,0 2.6,-0.64 1.12,-0.64 1.8,-1.68 0.72,-1.04 1.04,-2.32 0.36,-1.32 0.36,-2.68 0,-3.44 -1.56,-5.36 -1.52,-1.92 -4.16,-1.92 -1.6,0 -2.72,0.68 -1.08,0.64 -1.8,1.72 -0.68,1.04 -1,2.4 -0.28,1.32 -0.28,2.72 z m 21.00001,-18.44 h 4.56 v 4.32 h -4.56 z m 0,7.88 h 4.56 v 20.68 h -4.56 z m 9.51996,0 h 4.32 v 3.04 l 0.08,0.08 q 1.04,-1.72 2.72,-2.68 1.68,-1 3.72,-1 3.4,0 5.36,1.76 1.96,1.76 1.96,5.28 v 14.2 h -4.56 v -13 q -0.08,-2.44 -1.04,-3.52 -0.96,-1.12 -3,-1.12 -1.16,0 -2.08,0.44 -0.92,0.4 -1.56,1.16 -0.64,0.72 -1,1.72 -0.36,1 -0.36,2.12 v 12.2 h -4.56 z m 42.07998,19.6 q 0,4.68 -2.64,6.96 -2.6,2.32 -7.52,2.32 -1.56,0 -3.16,-0.32 -1.56,-0.32 -2.88,-1.08 -1.28,-0.76 -2.16,-2 -0.88,-1.24 -1.04,-3.04 h 4.56 q 0.2,0.96 0.68,1.56 0.48,0.6 1.12,0.92 0.68,0.36 1.48,0.44 0.8,0.12 1.68,0.12 2.76,0 4.04,-1.36 1.28,-1.36 1.28,-3.92 v -3.16 h -0.08 q -0.96,1.72 -2.64,2.68 -1.64,0.96 -3.56,0.96 -2.48,0 -4.24,-0.84 -1.72,-0.88 -2.88,-2.36 -1.12,-1.52 -1.64,-3.48 -0.52,-1.96 -0.52,-4.2 0,-2.08 0.64,-3.96 0.64,-1.88 1.84,-3.28 1.2,-1.44 2.92,-2.28 1.76,-0.84 3.96,-0.84 1.96,0 3.6,0.84 1.64,0.8 2.52,2.56 h 0.08 v -2.84 h 4.56 z m -10.12,-2.52 q 1.52,0 2.56,-0.6 1.08,-0.64 1.72,-1.64 0.68,-1.04 0.96,-2.32 0.32,-1.32 0.32,-2.64 0,-1.32 -0.32,-2.56 -0.32,-1.24 -1,-2.2 -0.64,-0.96 -1.72,-1.52 -1.04,-0.56 -2.52,-0.56 -1.52,0 -2.56,0.64 -1.04,0.64 -1.68,1.68 -0.64,1 -0.92,2.32 -0.28,1.28 -0.28,2.56 0,1.28 0.32,2.52 0.32,1.2 0.96,2.16 0.68,0.96 1.68,1.56 1.04,0.6 2.48,0.6 z"
         id="path9" />
      <path
         style="font-weight:500;font-family:'Helvetica Neue';-inkscape-font-specification:'Helvetica Neue Medium';text-align:center;text-anchor:middle"
         d="m 168.31349,105.9453 h 8.16 q 1.8,0 3,-1 1.2,-1.04 1.2,-2.96 0,-2.160002 -1.08,-3.040002 -1.08,-0.88 -3.12,-0.88 h -8.16 z m -5,-11.960002 h 13.88 q 3.84,0 6.16,1.76 2.32,1.76 2.32,5.320002 0,2.16 -1.08,3.72 -1.04,1.52 -3,2.36 v 0.08 q 2.64,0.56 4,2.52 1.36,1.92 1.36,4.84 0,1.68 -0.6,3.16 -0.6,1.44 -1.88,2.52 -1.28,1.04 -3.28,1.68 -2,0.6 -4.76,0.6 h -13.12 z m 5,24.480002 h 8.84 q 2.28,0 3.52,-1.16 1.28,-1.2 1.28,-3.36 0,-2.12 -1.28,-3.24 -1.24,-1.16 -3.52,-1.16 h -8.84 z m 39.84002,-0.52 q 0,0.84 0.2,1.2 0.24,0.36 0.88,0.36 0.2,0 0.48,0 0.28,0 0.64,-0.08 v 3.16 q -0.24,0.08 -0.64,0.16 -0.36,0.12 -0.76,0.2 -0.4,0.08 -0.8,0.12 -0.4,0.04 -0.68,0.04 -1.4,0 -2.32,-0.56 -0.92,-0.56 -1.2,-1.96 -1.36,1.32 -3.36,1.92 -1.96,0.6 -3.8,0.6 -1.4,0 -2.68,-0.4 -1.28,-0.36 -2.28,-1.08 -0.96,-0.76 -1.56,-1.88 -0.56,-1.16 -0.56,-2.68 0,-1.92 0.68,-3.12 0.72,-1.2 1.84,-1.88 1.16,-0.68 2.56,-0.96 1.44,-0.32 2.88,-0.48 1.24,-0.24 2.36,-0.32 1.12,-0.12 1.96,-0.36 0.88,-0.24 1.36,-0.72 0.52,-0.52 0.52,-1.52 0,-0.88 -0.44,-1.44 -0.4,-0.56 -1.04,-0.84 -0.6,-0.32 -1.36,-0.4 -0.76,-0.12 -1.44,-0.12 -1.92,0 -3.16,0.8 -1.24,0.8 -1.4,2.48 h -4.56 q 0.12,-2 0.96,-3.32 0.84,-1.32 2.12,-2.12 1.32,-0.8 2.96,-1.12 1.64,-0.32 3.36,-0.32 1.52,0 3,0.32 1.48,0.32 2.64,1.04 1.2,0.72 1.92,1.88 0.72,1.12 0.72,2.76 z m -4.56,-5.76 q -1.04,0.68 -2.56,0.84 -1.52,0.12 -3.04,0.4 -0.72,0.12 -1.4,0.36 -0.68,0.2 -1.2,0.6 -0.52,0.36 -0.84,1 -0.28,0.6 -0.28,1.48 0,0.76 0.44,1.28 0.44,0.52 1.04,0.84 0.64,0.28 1.36,0.4 0.76,0.12 1.36,0.12 0.76,0 1.64,-0.2 0.88,-0.2 1.64,-0.68 0.8,-0.48 1.32,-1.2 0.52,-0.76 0.52,-1.84 z m 9.59999,-18.200002 h 4.56 V 122.5453 h -4.56 z m 9.63997,0 h 4.56 V 122.5453 h -4.56 z"
         id="path11" />
    </g>
    <text
       xml:space="preserve"
       style="font-style:normal;font-weight:normal;font-size:40px;line-height:1.05;font-family:sans-serif;display:none;fill:#000000;fill-opacity:1;stroke:none"
       x="230.14064"
       y="71.095322"
       id="text6"
       inkscape:label="police"
       transform="translate(-35.02718,-34.999836)"><tspan
         sodipodi:role="line"
         id="tspan4"
         x="230.14064"
         y="71.095322"
         style="font-style:normal;font-variant:normal;font-weight:500;font-stretch:normal;line-height:1.05;font-family:'Helvetica Neue';-inkscape-font-specification:'Helvetica Neue Medium';text-align:center;text-anchor:middle">Super</tspan><tspan
         sodipodi:role="line"
         x="230.14064"
         y="114.32023"
         id="tspan5"
         style="font-style:normal;font-variant:normal;font-weight:500;font-stretch:normal;line-height:1.05;font-family:'Helvetica Neue';-inkscape-font-specification:'Helvetica Neue Medium';text-align:center;text-anchor:middle">Coding</tspan><tspan
         sodipodi:role="line"
         x="230.14064"
         y="157.54514"
         id="tspan6"
         style="font-style:normal;font-variant:normal;font-weight:500;font-stretch:normal;line-height:1.05;font-family:'Helvetica Neue';-inkscape-font-specification:'Helvetica Neue Medium';text-align:center;text-anchor:middle">Ball</tspan></text>
  </g>
  <g
     inkscape:groupmode="layer"
     id="layer1"
     inkscape:label="blocs"
     style="display:inline"
     transform="translate(-35.02718,-34.999836)">
    <path
       class="a"
       d="M 152.51972,45.499903 H 51.811993 V 153.9999 a 3.7944071,3.504 0 0 0 3.790076,3.5 H 153.06116 V 45.499903 Z"
       id="path6"
       style="display:inline;stroke-width:1.04061"
       inkscape:label="bleu" />
    <path
       class="b"
       d="m 155.22692,58.999903 a 3.329549,3.07472 0 0 0 2.30653,-0.88 c 0.21657,-0.2 3.85505,-3.56 6.46478,-5.97 a 3.2809602,3.02985 0 0 0 0.97459,-2.15 v -6 a 3.2443047,2.996 0 0 0 -3.24863,-3 h -48.72955 c -8.64137,-2.76 -20.000768,-6 -34.316425,-6 a 106.78663,98.61365 0 0 0 -32.529677,4.65 4.64307,4.28771 0 0 0 -0.498125,0.17 6.5217564,6.02261 0 0 0 -2.014154,1.16 l -6.832965,6.31 a 6.3144609,5.83118 0 0 0 -1.775921,4.1 V 158.0299 a 7.5691925,6.98988 0 0 0 1.87338,4.57 c 0.119117,0.12 0.238233,0.25 0.368179,0.36 a 7.5414383,6.96425 0 0 0 4.602234,2.01 c 0.249063,0.02 0.487296,0.03 0.736358,0.03 H 155.22692 a 3.139363,2.89909 0 0 0 2.26321,-0.85 l 6.60556,-6.08 a 3.4432296,3.1797 0 0 0 0.87713,-2.07 v -6 a 3.2443047,2.996 0 0 0 -3.24863,-3 h -8.66303 V 58.999903 Z m -2.7072,87.999997 H 66.430857 a 3.2443047,2.996 0 0 1 -3.248637,-3 V 55.999903 h 4.331515 l 6.139923,3.78 a 6.4913708,5.99455 0 0 0 7.211972,0 l 6.139923,-3.78 h 62.601227 a 2.6853444,2.47982 0 0 1 2.28487,0.9 3.0215674,2.79031 0 0 1 0.62807,2.1 z"
       id="path8"
       style="display:inline;stroke-width:1.04061"
       inkscape:export-filename="C:\Applications\projects\super-coding-ball\src\assets\app-icons\icon-192x192.png"
       inkscape:export-xdpi="141.78426"
       inkscape:export-ydpi="141.78426"
       inkscape:label="jaune" />
    <path
       class="c"
       d="m 155.22692,58.999903 a 3.329549,3.07472 0 0 0 2.30653,-0.88 c 0.21657,-0.2 3.85505,-3.56 6.46478,-5.97 a 3.2809602,3.02985 0 0 0 0.97459,-2.15 v -6 a 3.2443047,2.996 0 0 0 -3.24863,-3 h -48.72955 c -8.64137,-2.76 -20.000768,-6 -34.316425,-6 a 106.78663,98.61365 0 0 0 -32.529677,4.65 4.64307,4.28771 0 0 0 -0.498125,0.17 6.5217564,6.02261 0 0 0 -2.014154,1.16 l -6.832965,6.31 a 6.3144609,5.83118 0 0 0 -1.775921,4.1 V 158.0299 a 7.5691925,6.98988 0 0 0 1.87338,4.57 c 0.119117,0.12 0.238233,0.25 0.368179,0.36 a 7.5414383,6.96425 0 0 0 4.602234,2.01 c 0.249063,0.02 0.487296,0.03 0.736358,0.03 H 155.22692 a 3.139363,2.89909 0 0 0 2.26321,-0.85 l 6.60556,-6.08 a 3.4432296,3.1797 0 0 0 0.87713,-2.07 v -6 a 3.2443047,2.996 0 0 0 -3.24863,-3 h -8.66303 V 58.999903 Z m -5.62014,-3 a 2.6853444,2.47982 0 0 1 2.28487,0.9 3.0215674,2.79031 0 0 1 0.62807,2.1 V 146.9999 H 66.430857 a 3.2443047,2.996 0 0 1 -3.248637,-3 V 55.999903 h 4.331515 l 6.139923,3.78 a 6.4913708,5.99455 0 0 0 7.211972,0 l 6.139923,-3.78 z m 12.11741,91.499997 a 2.7081715,2.5009 0 0 1 2.7072,2.5 v 6 a 2.7062873,2.49916 0 0 1 -2.17659,2.45 11.240195,10.37992 0 0 1 -1.61349,0.05 H 49.104797 c -0.0758,0 -0.140775,-0.01 -0.216576,-0.01 a 7.0315757,6.49341 0 0 1 -4.742944,-1.88 c -0.130011,-0.12 -0.249062,-0.24 -0.368179,-0.37 a 7.0241688,6.48657 0 0 1 -1.710948,-4.24 V 45.389903 a 5.8892902,5.43855 0 0 1 1.548516,-3.68005 5.966088,5.50947 0 0 1 2.68554,-1.59 110.1209,101.69273 0 0 1 32.378074,-4.62 c 14.066595,0 25.94578,3.37 34.2298,6 h 48.81617 a 2.7081715,2.5009 0 0 1 2.7072,2.5 v 6 a 2.7216641,2.51336 0 0 1 -2.7072,2.5 H 91.174701 l -6.280697,3.87 a 6.0205026,5.55972 0 0 1 -6.60556,0 l -5.869203,-3.62 -0.27072,-0.17 -0.140774,-0.08 h -5.576825 a 3.7942447,3.50385 0 0 0 -3.790076,3.5 v 87.999997 a 3.7942555,3.50386 0 0 0 3.790076,3.5 z"
       id="path10"
       style="display:inline;stroke-width:1.04061"
       inkscape:label="ombre" />
    <path
       d="m 155.22692,58.999903 a 3.329549,3.07472 0 0 0 2.30653,-0.88 c 0.21657,-0.2 3.85505,-3.56 6.46478,-5.97 a 3.2809602,3.02985 0 0 0 0.97459,-2.15 v -6 a 3.2443047,2.996 0 0 0 -3.24863,-3 h -48.72955 c -8.64137,-2.76 -20.000768,-6 -34.316425,-6 a 106.78663,98.61365 0 0 0 -32.529677,4.65 4.64307,4.28771 0 0 0 -0.498125,0.17 6.5217564,6.02261 0 0 0 -2.014154,1.16 l -6.832965,6.31 a 6.3144609,5.83118 0 0 0 -1.775921,4.1 V 158.0299 a 7.5691925,6.98988 0 0 0 1.87338,4.57 c 0.119117,0.12 0.238233,0.25 0.368179,0.36 a 7.5414383,6.96425 0 0 0 4.602234,2.01 c 0.249063,0.02 0.487296,0.03 0.736358,0.03 H 155.22692 a 3.139363,2.89909 0 0 0 2.26321,-0.85 l 6.60556,-6.08 a 3.4432296,3.1797 0 0 0 0.87713,-2.07 v -6 a 3.2443047,2.996 0 0 0 -3.24863,-3 h -8.66303 V 58.999903 Z m -119.658108,-7.61 a 5.893416,5.44236 0 0 1 1.992497,-4.09 l 1.591832,-1.48 2.837142,-2.61 a 6.3794336,5.89118 0 0 0 -0.465638,2.18005 V 151.31995 l -5.955833,5.5 z m 0,106.609997 v -0.47 l 5.955833,-5.5 a 7.5691925,6.98988 0 0 0 1.873381,4.57 l -6.118265,5.64 a 7.0241688,6.48657 0 0 1 -1.710895,-4.24 z m 6.822136,6.49 a 7.0315757,6.49341 0 0 1 -4.742944,-1.88 l 6.118265,-5.65 a 7.5414383,6.96425 0 0 0 4.602235,2.01 z m 114.850122,-0.83 a 2.6640333,2.46014 0 0 1 -2.01415,0.84 H 43.149018 l 5.955833,-5.5 H 160.64136 a 6.4740881,5.97859 0 0 0 1.87338,-0.1 c 0,0 -4.91627,4.42995 -5.27368,4.75997 z m 4.48312,-16.16 a 2.7081715,2.5009 0 0 1 2.7072,2.5 v 6 a 2.7062873,2.49916 0 0 1 -2.17659,2.45 11.240195,10.37992 0 0 1 -1.61349,0.05 H 49.104797 c -0.0758,0 -0.140775,-0.01 -0.216576,-0.01 a 7.0315757,6.49341 0 0 1 -4.742944,-1.88 c -0.130011,-0.12 -0.249062,-0.24 -0.368179,-0.37 a 7.0241688,6.48657 0 0 1 -1.710948,-4.24 V 45.389903 a 5.8892902,5.43855 0 0 1 1.548516,-3.68005 5.966088,5.50947 0 0 1 2.68554,-1.59 110.1209,101.69273 0 0 1 32.378074,-4.62 c 14.066595,0 25.94578,3.37 34.2298,6 h 48.81617 a 2.7081715,2.5009 0 0 1 2.7072,2.5 v 6 a 2.7216641,2.51336 0 0 1 -2.7072,2.5 H 91.174701 l -6.280697,3.87 a 6.0205026,5.55972 0 0 1 -6.60556,0 l -5.869203,-3.62 -0.27072,-0.17 -0.140774,-0.08 h -5.576825 a 3.7942447,3.50385 0 0 0 -3.790076,3.5 v 87.999997 a 3.7942555,3.50386 0 0 0 3.790076,3.5 z M 77.389589,60.279903 a 6.2101147,5.73482 0 0 1 -3.432725,-0.91 l -5.825888,-3.6 3.93085,-2.62 5.923347,3.63 a 6.4547587,5.96074 0 0 0 3.21615,0.98 z m 4.569749,-2.52 a 5.580529,5.15342 0 0 0 1.645976,-0.27 l -3.04289,1.88 a 6.0850639,5.61934 0 0 1 -2.328189,0.84 z m -14.304828,-2.26 h -4.428975 a 3.2486363,3 0 0 1 3.205322,-2.5 h 5.013728 z m -0.140775,0.5 6.139923,3.78 a 6.4913708,5.99455 0 0 0 7.211972,0 l 6.139923,-3.78 h 62.601227 a 2.6853444,2.47982 0 0 1 2.28487,0.9 3.0215674,2.79031 0 0 1 0.62807,2.1 V 146.9999 H 66.430857 a 3.2443047,2.996 0 0 1 -3.248637,-3 V 55.999903 Z m 85.536595,2.5 a 3.2383814,2.99053 0 0 0 -0.93128,-2.13 3.1717519,2.929 0 0 0 -2.30653,-0.87 H 87.612019 l 3.790076,-2.5 h 70.322145 a 3.148849,2.90785 0 0 0 0.64973,-0.06 c 0,0 -4.82964,4.44 -5.20865,4.8 a 2.8970363,2.67531 0 0 1 -1.93835,0.76 z"
       id="path12"
       style="display:inline;stroke-width:1.04061"
       inkscape:label="contours" />
  </g>
  <g
     id="layer2"
     inkscape:label="ballon"
     style="display:inline"
     transform="matrix(1.1679015,0,0,1.2016533,-50.871224,-54.627783)">
    <circle
       class="d"
       cx="106.34239"
       cy="100.9999"
       id="circle14"
       style="display:inline"
       r="32.765961"
       inkscape:label="blanc" />
    <path
       d="m 108.61857,133.65018 c 23.20046,-1.76319 37.82747,-27.44984 26.675,-48.344237 v 0 l -3.2e-4,-5.3e-4 c -9.55468,-18.26713 -34.39072,-22.73565 -50.022385,-9.19909 l -0.05011,0.0035 0.0025,0.03744 c -20.39573,17.12823 -12.71694,50.670337 13.01867,56.718367 l 5e-5,5.8e-4 a 33.01361,33.01361 0 0 0 10.376555,0.78402 z m 20.29037,-51.519227 -4.57845,7.9561 -13.8614,-1.828 -7.99301,-9.14319 4.88076,-7.48753 13.56006,1.54342 z m -2.21932,22.495997 6.39332,4.22138 -3.3773,11.423 -11.41578,7.00975 -5.73478,-4.62121 3.397,-11.45859 z m -16.63522,-16.182507 -4.99494,12.962997 -12.913005,3.3262 -8.47259,-9.427197 6.18022,-13.14993 12.244365,-2.81287 z m -17.744875,16.695997 12.836125,-3.30636 10.36112,9.33994 -3.37783,11.39389 -13.980585,3.3988 -9.31854,-9.27827 z m 36.724105,18.57509 a 32.69026,32.69026 0 0 1 -13.86512,8.27941 l 3.00372,-4.13212 11.63778,-7.14605 1.41176,0.58753 q -1.02823,1.24987 -2.18814,2.41125 z m 9.6201,-22.9385 c -0.001,0.24481 -0.0155,0.48761 -0.0224,0.73157 l -5.35,6.95035 -6.51944,-4.30464 -2.11707,-13.742497 4.61642,-8.022 5.3647,2.59341 a 31.8749,31.8749 0 0 1 4.02777,15.793827 z m -17.94238,-28.947997 -10e-5,0.88181 -13.81887,-1.57291 -5.16601,-2.12485 a 32.3332,32.3332 0 0 1 18.98498,2.81597 z m -29.384205,0.64941 -4.33485,3.50917 -1.00253,0.06911 a 32.81739,32.81739 0 0 1 5.33738,-3.57828 z m -7.75691,5.77409 c 0.60343,-0.60344 1.23132,-1.17229 1.87146,-1.72237 l 1.49475,-0.103 2.52947,5.53428 -6.2768,13.35538 -6.75725,5.800227 c -0.47886,-0.32245 -1.29486,-0.86394 -2.42685,-1.610507 a 32.55032,32.55032 0 0 1 9.56522,-21.25399 z m -9.58415,21.762407 c 0.83112,0.54838 1.81243,1.19843 2.32518,1.54364 l 3.19512,12.74527 -1.86488,2.08226 a 31.88884,31.88884 0 0 1 -3.65542,-16.37117 z m 9.29521,23.9896 a 31.89849,31.89849 0 0 1 -5.41514,-7.2181 l 1.927,-2.15157 8.60978,2.24157 9.5299,9.48792 0.28793,6.05416 a 31.658,31.658 0 0 1 -14.93947,-8.41398 z"
       id="path16"
       style="display:inline"
       inkscape:label="motifs" />
    <path
       class="e"
       d="m 106.34246,67.999903 c -6.548155,-0.0075 -12.948608,1.94556 -18.377005,5.60765 -0.24342,0.15913 -0.47746,0.32763 -0.7115,0.49614 -0.20593,0.14982 -0.42129,0.29958 -0.62722,0.4494 -16.136492,12.018084 -25.540955,33.501667 -12.128179,51.359687 13.301119,17.70936 46.272654,10.93935 58.290734,-5.19714 0.14976,-0.206 0.29958,-0.42129 0.44934,-0.62722 0.16851,-0.234 0.33707,-0.46808 0.4962,-0.7115 14.7295,-21.916227 -0.98631,-51.392747 -27.39235,-51.376997 z m 26.1098,52.378727 c -12.94245,9.6239 -30.98391,8.30443 -42.388446,-3.10009 C 78.65928,105.87403 77.339788,87.832567 86.963675,74.890103 c 12.942456,-9.62382 30.983855,-8.304312 42.388345,3.100181 11.4045,11.404493 12.72401,29.445886 3.10019,42.388346 z"
       id="path18"
       style="display:inline"
       sodipodi:nodetypes="scccscccsscscscc"
       inkscape:label="ombre" />
  </g>
</svg>
