<?xml version="1.0" encoding="UTF-8" standalone="no"?>
<svg
   viewBox="0 0 260 130"
   version="1.1"
   id="svg22"
   sodipodi:docname="icon-blockly-website.svg"
   width="260"
   height="130"
   inkscape:version="1.4 (e7c3feb1, 2024-10-09)"
   inkscape:export-filename="icon-blockly-website.png"
   inkscape:export-xdpi="147.69231"
   inkscape:export-ydpi="147.69231"
   xml:space="preserve"
   xmlns:inkscape="http://www.inkscape.org/namespaces/inkscape"
   xmlns:sodipodi="http://sodipodi.sourceforge.net/DTD/sodipodi-0.dtd"
   xmlns="http://www.w3.org/2000/svg"
   xmlns:svg="http://www.w3.org/2000/svg"><sodipodi:namedview
     id="namedview24"
     pagecolor="#ffffff"
     bordercolor="#666666"
     borderopacity="1.0"
     inkscape:pageshadow="2"
     inkscape:pageopacity="0.0"
     inkscape:pagecheckerboard="true"
     showgrid="false"
     width="200px"
     inkscape:zoom="1.9115966"
     inkscape:cx="77.422193"
     inkscape:cy="75.329701"
     inkscape:window-width="1440"
     inkscape:window-height="751"
     inkscape:window-x="0"
     inkscape:window-y="25"
     inkscape:window-maximized="1"
     inkscape:current-layer="svg22"
     inkscape:snap-to-guides="true"
     inkscape:snap-page="true"
     inkscape:showpageshadow="2"
     inkscape:deskcolor="#d1d1d1" /><defs
     id="defs4"><style
       id="style2">
      .a {
        fill: #cff;
      }

      .b {
        fill: #ffc;
      }

      .c {
        opacity: 0.2;
      }

      .d {
        fill: #fff;
      }

      .e {
        opacity: 0.4;
      }
    </style><clipPath
       clipPathUnits="userSpaceOnUse"
       id="clipPath157"><rect
         style="fill:#000000;stroke:#000000;stroke-width:0;stroke-linejoin:bevel;paint-order:stroke markers fill;stop-color:#000000"
         id="rect157"
         width="20"
         height="200"
         x="530"
         y="595" /></clipPath><clipPath
       clipPathUnits="userSpaceOnUse"
       id="clipPath25"><rect
         style="fill:#ff0000;stroke:none;stroke-width:3;stroke-linecap:square;stroke-linejoin:miter;paint-order:stroke markers fill;stop-color:#000000"
         id="rect25-8"
         width="78"
         height="45.033199"
         x="763.61322"
         y="452.82422" /></clipPath><clipPath
       clipPathUnits="userSpaceOnUse"
       id="clipPath131"><path
         id="path131"
         style="stroke-width:0.1;stroke-linecap:square;paint-order:markers fill stroke;stop-color:#000000"
         d="m 438.25066,553.76374 859.87054,0 v 201.39554 l -859.87054,0 z"
         sodipodi:nodetypes="ccccc" /></clipPath><clipPath
       clipPathUnits="userSpaceOnUse"
       id="clipPath128"><path
         id="path5"
         style="stroke-width:0.1;stroke-linecap:square;paint-order:markers fill stroke;stop-color:#000000"
         d="m 438.25066,553.76374 859.87054,0 v 201.39554 l -859.87054,0 z"
         sodipodi:nodetypes="ccccc" /></clipPath><clipPath
       clipPathUnits="userSpaceOnUse"
       id="clipPath55"><path
         id="path55"
         style="stroke-width:0.1;stroke-linecap:square;paint-order:markers fill stroke;stop-color:#000000"
         d="m 1736.6147,-745.57287 h 1589.4765 v 72.46715 H 1736.6147 Z" /></clipPath><clipPath
       clipPathUnits="userSpaceOnUse"
       id="clipPath119"><path
         id="path119"
         style="stroke-width:0.0999999;stroke-linecap:square;paint-order:markers fill stroke;stop-color:#000000"
         d="m 1691.1994,-792.32001 h 1634.8919 v 92.82806 H 1691.1994 Z" /></clipPath><clipPath
       clipPathUnits="userSpaceOnUse"
       id="clipPath115"><path
         id="path115"
         style="stroke-width:0.0999999;stroke-linecap:square;paint-order:markers fill stroke;stop-color:#000000"
         d="m 1806.4991,-753.5228 h 1637.2646 v 66.90533 H 1806.4991 Z" /></clipPath><clipPath
       clipPathUnits="userSpaceOnUse"
       id="clipPath111"><path
         id="path111"
         style="stroke-width:0.0999999;stroke-linecap:square;paint-order:markers fill stroke;stop-color:#000000"
         d="m 1806.4991,-753.5228 h 1637.2646 v 66.90533 H 1806.4991 Z" /></clipPath><clipPath
       clipPathUnits="userSpaceOnUse"
       id="clipPath98"><path
         id="path98"
         style="stroke-width:0.1;stroke-linecap:square;paint-order:markers fill stroke;stop-color:#000000"
         d="m -880.82767,-187.29769 h 1640.84 v 73.28155 h -1640.84 z" /></clipPath><clipPath
       clipPathUnits="userSpaceOnUse"
       id="clipPath52"><path
         id="path52"
         style="stroke-width:0.1;stroke-linecap:square;paint-order:markers fill stroke;stop-color:#000000"
         d="m -880.82767,-187.29769 h 1640.84 v 73.28155 h -1640.84 z" /></clipPath><clipPath
       clipPathUnits="userSpaceOnUse"
       id="clipPath56"><path
         id="path56"
         style="stroke-width:0.0999999;stroke-linecap:square;paint-order:markers fill stroke;stop-color:#000000"
         d="m 1691.1994,-792.32001 h 1634.8919 v 92.82806 H 1691.1994 Z" /></clipPath><linearGradient
       id="swatch46"
       inkscape:swatch="solid"><stop
         style="stop-color:#ccffcc;stop-opacity:1;"
         offset="0"
         id="stop47" /></linearGradient><clipPath
       clipPathUnits="userSpaceOnUse"
       id="clipPath5"><rect
         style="fill:#000000;stroke:#000000;stroke-width:0;stroke-linejoin:bevel;paint-order:stroke markers fill;stop-color:#000000"
         id="rect5-4"
         width="20"
         height="200"
         x="530"
         y="595" /></clipPath><clipPath
       clipPathUnits="userSpaceOnUse"
       id="clipPath24"><path
         id="path24"
         style="stroke-width:0.0999999;stroke-linecap:square;paint-order:markers fill stroke;stop-color:#000000"
         d="m 1691.1994,-792.32001 h 1634.8919 v 92.82806 H 1691.1994 Z" /></clipPath><clipPath
       clipPathUnits="userSpaceOnUse"
       id="clipPath22"><path
         id="path22"
         style="stroke-width:0.0999999;stroke-linecap:square;paint-order:markers fill stroke;stop-color:#000000"
         d="m 1806.4991,-753.5228 h 1637.2646 v 66.90533 H 1806.4991 Z" /></clipPath><clipPath
       clipPathUnits="userSpaceOnUse"
       id="clipPath20"><path
         id="path20"
         style="stroke-width:0.0999999;stroke-linecap:square;paint-order:markers fill stroke;stop-color:#000000"
         d="m 1691.1994,-792.32001 h 1634.8919 v 92.82806 H 1691.1994 Z" /></clipPath><clipPath
       clipPathUnits="userSpaceOnUse"
       id="clipPath51"><path
         id="path51"
         style="stroke-width:0.0999999;stroke-linecap:square;paint-order:markers fill stroke;stop-color:#000000"
         d="m 1806.4991,-753.5228 h 1637.2646 v 66.90533 H 1806.4991 Z" /></clipPath><clipPath
       clipPathUnits="userSpaceOnUse"
       id="clipPath54"><path
         id="path54"
         style="stroke-width:0.0999999;stroke-linecap:square;paint-order:markers fill stroke;stop-color:#000000"
         d="m 1691.1994,-792.32001 h 1634.8919 v 92.82806 H 1691.1994 Z" /></clipPath><style
       id="style2-2">
      .a {
        fill: #cff;
      }

      .b {
        fill: #ffc;
      }

      .c {
        opacity: 0.2;
      }

      .d {
        fill: #fff;
      }

      .e {
        opacity: 0.4;
      }
    </style><clipPath
       clipPathUnits="userSpaceOnUse"
       id="clipPath157-1"><rect
         style="fill:#000000;stroke:#000000;stroke-width:0;stroke-linejoin:bevel;paint-order:stroke markers fill;stop-color:#000000"
         id="rect157-7"
         width="20"
         height="200"
         x="530"
         y="595" /></clipPath><clipPath
       clipPathUnits="userSpaceOnUse"
       id="clipPath25-2"><rect
         style="fill:#ff0000;stroke:none;stroke-width:3;stroke-linecap:square;stroke-linejoin:miter;paint-order:stroke markers fill;stop-color:#000000"
         id="rect25-8-3"
         width="78"
         height="45.033199"
         x="763.61322"
         y="452.82422" /></clipPath><clipPath
       clipPathUnits="userSpaceOnUse"
       id="clipPath131-6"><path
         id="path131-5"
         style="stroke-width:0.1;stroke-linecap:square;paint-order:markers fill stroke;stop-color:#000000"
         d="m 438.25066,553.76374 859.87054,0 v 201.39554 l -859.87054,0 z"
         sodipodi:nodetypes="ccccc" /></clipPath><clipPath
       clipPathUnits="userSpaceOnUse"
       id="clipPath128-5"><path
         id="path5-8"
         style="stroke-width:0.1;stroke-linecap:square;paint-order:markers fill stroke;stop-color:#000000"
         d="m 438.25066,553.76374 859.87054,0 v 201.39554 l -859.87054,0 z"
         sodipodi:nodetypes="ccccc" /></clipPath><clipPath
       clipPathUnits="userSpaceOnUse"
       id="clipPath55-1"><path
         id="path55-4"
         style="stroke-width:0.1;stroke-linecap:square;paint-order:markers fill stroke;stop-color:#000000"
         d="m 1736.6147,-745.57287 h 1589.4765 v 72.46715 H 1736.6147 Z" /></clipPath><clipPath
       clipPathUnits="userSpaceOnUse"
       id="clipPath119-7"><path
         id="path119-1"
         style="stroke-width:0.0999999;stroke-linecap:square;paint-order:markers fill stroke;stop-color:#000000"
         d="m 1691.1994,-792.32001 h 1634.8919 v 92.82806 H 1691.1994 Z" /></clipPath><clipPath
       clipPathUnits="userSpaceOnUse"
       id="clipPath115-3"><path
         id="path115-8"
         style="stroke-width:0.0999999;stroke-linecap:square;paint-order:markers fill stroke;stop-color:#000000"
         d="m 1806.4991,-753.5228 h 1637.2646 v 66.90533 H 1806.4991 Z" /></clipPath><clipPath
       clipPathUnits="userSpaceOnUse"
       id="clipPath111-4"><path
         id="path111-8"
         style="stroke-width:0.0999999;stroke-linecap:square;paint-order:markers fill stroke;stop-color:#000000"
         d="m 1806.4991,-753.5228 h 1637.2646 v 66.90533 H 1806.4991 Z" /></clipPath><clipPath
       clipPathUnits="userSpaceOnUse"
       id="clipPath98-0"><path
         id="path98-4"
         style="stroke-width:0.1;stroke-linecap:square;paint-order:markers fill stroke;stop-color:#000000"
         d="m -880.82767,-187.29769 h 1640.84 v 73.28155 h -1640.84 z" /></clipPath><clipPath
       clipPathUnits="userSpaceOnUse"
       id="clipPath52-6"><path
         id="path52-0"
         style="stroke-width:0.1;stroke-linecap:square;paint-order:markers fill stroke;stop-color:#000000"
         d="m -880.82767,-187.29769 h 1640.84 v 73.28155 h -1640.84 z" /></clipPath><clipPath
       clipPathUnits="userSpaceOnUse"
       id="clipPath56-3"><path
         id="path56-2"
         style="stroke-width:0.0999999;stroke-linecap:square;paint-order:markers fill stroke;stop-color:#000000"
         d="m 1691.1994,-792.32001 h 1634.8919 v 92.82806 H 1691.1994 Z" /></clipPath><clipPath
       clipPathUnits="userSpaceOnUse"
       id="clipPath5-9"><rect
         style="fill:#000000;stroke:#000000;stroke-width:0;stroke-linejoin:bevel;paint-order:stroke markers fill;stop-color:#000000"
         id="rect5-4-4"
         width="20"
         height="200"
         x="530"
         y="595" /></clipPath><clipPath
       clipPathUnits="userSpaceOnUse"
       id="clipPath24-1"><path
         id="path24-3"
         style="stroke-width:0.0999999;stroke-linecap:square;paint-order:markers fill stroke;stop-color:#000000"
         d="m 1691.1994,-792.32001 h 1634.8919 v 92.82806 H 1691.1994 Z" /></clipPath><clipPath
       clipPathUnits="userSpaceOnUse"
       id="clipPath22-7"><path
         id="path22-8"
         style="stroke-width:0.0999999;stroke-linecap:square;paint-order:markers fill stroke;stop-color:#000000"
         d="m 1806.4991,-753.5228 h 1637.2646 v 66.90533 H 1806.4991 Z" /></clipPath><clipPath
       clipPathUnits="userSpaceOnUse"
       id="clipPath20-8"><path
         id="path20-3"
         style="stroke-width:0.0999999;stroke-linecap:square;paint-order:markers fill stroke;stop-color:#000000"
         d="m 1691.1994,-792.32001 h 1634.8919 v 92.82806 H 1691.1994 Z" /></clipPath><clipPath
       clipPathUnits="userSpaceOnUse"
       id="clipPath51-8"><path
         id="path51-1"
         style="stroke-width:0.0999999;stroke-linecap:square;paint-order:markers fill stroke;stop-color:#000000"
         d="m 1806.4991,-753.5228 h 1637.2646 v 66.90533 H 1806.4991 Z" /></clipPath><clipPath
       clipPathUnits="userSpaceOnUse"
       id="clipPath54-5"><path
         id="path54-3"
         style="stroke-width:0.0999999;stroke-linecap:square;paint-order:markers fill stroke;stop-color:#000000"
         d="m 1691.1994,-792.32001 h 1634.8919 v 92.82806 H 1691.1994 Z" /></clipPath><style
       id="style2-5">
      .a {
        fill: #cff;
      }

      .b {
        fill: #ffc;
      }

      .c {
        opacity: 0.2;
      }

      .d {
        fill: #fff;
      }

      .e {
        opacity: 0.4;
      }
    </style><clipPath
       clipPathUnits="userSpaceOnUse"
       id="clipPath157-5"><rect
         style="fill:#000000;stroke:#000000;stroke-width:0;stroke-linejoin:bevel;paint-order:stroke markers fill;stop-color:#000000"
         id="rect157-3"
         width="20"
         height="200"
         x="530"
         y="595" /></clipPath><clipPath
       clipPathUnits="userSpaceOnUse"
       id="clipPath25-5"><rect
         style="fill:#ff0000;stroke:none;stroke-width:3;stroke-linecap:square;stroke-linejoin:miter;paint-order:stroke markers fill;stop-color:#000000"
         id="rect25-8-4"
         width="78"
         height="45.033199"
         x="763.61322"
         y="452.82422" /></clipPath><clipPath
       clipPathUnits="userSpaceOnUse"
       id="clipPath131-3"><path
         id="path131-6"
         style="stroke-width:0.1;stroke-linecap:square;paint-order:markers fill stroke;stop-color:#000000"
         d="M 438.25066,553.76374 H 1298.1212 V 755.15928 H 438.25066 Z"
         sodipodi:nodetypes="ccccc" /></clipPath><clipPath
       clipPathUnits="userSpaceOnUse"
       id="clipPath128-59"><path
         id="path5-5"
         style="stroke-width:0.1;stroke-linecap:square;paint-order:markers fill stroke;stop-color:#000000"
         d="M 438.25066,553.76374 H 1298.1212 V 755.15928 H 438.25066 Z"
         sodipodi:nodetypes="ccccc" /></clipPath><clipPath
       clipPathUnits="userSpaceOnUse"
       id="clipPath55-4"><path
         id="path55-9"
         style="stroke-width:0.1;stroke-linecap:square;paint-order:markers fill stroke;stop-color:#000000"
         d="m 1736.6147,-745.57287 h 1589.4765 v 72.46715 H 1736.6147 Z" /></clipPath><clipPath
       clipPathUnits="userSpaceOnUse"
       id="clipPath119-1"><path
         id="path119-7"
         style="stroke-width:0.0999999;stroke-linecap:square;paint-order:markers fill stroke;stop-color:#000000"
         d="m 1691.1994,-792.32001 h 1634.8919 v 92.82806 H 1691.1994 Z" /></clipPath><clipPath
       clipPathUnits="userSpaceOnUse"
       id="clipPath115-5"><path
         id="path115-5"
         style="stroke-width:0.0999999;stroke-linecap:square;paint-order:markers fill stroke;stop-color:#000000"
         d="m 1806.4991,-753.5228 h 1637.2646 v 66.90533 H 1806.4991 Z" /></clipPath><clipPath
       clipPathUnits="userSpaceOnUse"
       id="clipPath111-41"><path
         id="path111-88"
         style="stroke-width:0.0999999;stroke-linecap:square;paint-order:markers fill stroke;stop-color:#000000"
         d="m 1806.4991,-753.5228 h 1637.2646 v 66.90533 H 1806.4991 Z" /></clipPath><clipPath
       clipPathUnits="userSpaceOnUse"
       id="clipPath98-3"><path
         id="path98-5"
         style="stroke-width:0.1;stroke-linecap:square;paint-order:markers fill stroke;stop-color:#000000"
         d="m -880.82767,-187.29769 h 1640.84 v 73.28155 h -1640.84 z" /></clipPath><clipPath
       clipPathUnits="userSpaceOnUse"
       id="clipPath52-2"><path
         id="path52-2"
         style="stroke-width:0.1;stroke-linecap:square;paint-order:markers fill stroke;stop-color:#000000"
         d="m -880.82767,-187.29769 h 1640.84 v 73.28155 h -1640.84 z" /></clipPath><clipPath
       clipPathUnits="userSpaceOnUse"
       id="clipPath56-6"><path
         id="path56-6"
         style="stroke-width:0.0999999;stroke-linecap:square;paint-order:markers fill stroke;stop-color:#000000"
         d="m 1691.1994,-792.32001 h 1634.8919 v 92.82806 H 1691.1994 Z" /></clipPath><clipPath
       clipPathUnits="userSpaceOnUse"
       id="clipPath5-8"><rect
         style="fill:#000000;stroke:#000000;stroke-width:0;stroke-linejoin:bevel;paint-order:stroke markers fill;stop-color:#000000"
         id="rect5-4-41"
         width="20"
         height="200"
         x="530"
         y="595" /></clipPath><clipPath
       clipPathUnits="userSpaceOnUse"
       id="clipPath24-7"><path
         id="path24-1"
         style="stroke-width:0.0999999;stroke-linecap:square;paint-order:markers fill stroke;stop-color:#000000"
         d="m 1691.1994,-792.32001 h 1634.8919 v 92.82806 H 1691.1994 Z" /></clipPath><clipPath
       clipPathUnits="userSpaceOnUse"
       id="clipPath22-8"><path
         id="path22-7"
         style="stroke-width:0.0999999;stroke-linecap:square;paint-order:markers fill stroke;stop-color:#000000"
         d="m 1806.4991,-753.5228 h 1637.2646 v 66.90533 H 1806.4991 Z" /></clipPath><clipPath
       clipPathUnits="userSpaceOnUse"
       id="clipPath20-87"><path
         id="path20-7"
         style="stroke-width:0.0999999;stroke-linecap:square;paint-order:markers fill stroke;stop-color:#000000"
         d="m 1691.1994,-792.32001 h 1634.8919 v 92.82806 H 1691.1994 Z" /></clipPath><clipPath
       clipPathUnits="userSpaceOnUse"
       id="clipPath51-4"><path
         id="path51-4"
         style="stroke-width:0.0999999;stroke-linecap:square;paint-order:markers fill stroke;stop-color:#000000"
         d="m 1806.4991,-753.5228 h 1637.2646 v 66.90533 H 1806.4991 Z" /></clipPath><clipPath
       clipPathUnits="userSpaceOnUse"
       id="clipPath54-9"><path
         id="path54-1"
         style="stroke-width:0.0999999;stroke-linecap:square;paint-order:markers fill stroke;stop-color:#000000"
         d="m 1691.1994,-792.32001 h 1634.8919 v 92.82806 H 1691.1994 Z" /></clipPath><style
       id="style2-55">
      .a {
        fill: #cff;
      }

      .b {
        fill: #ffc;
      }

      .c {
        opacity: 0.2;
      }

      .d {
        fill: #fff;
      }

      .e {
        opacity: 0.4;
      }
    </style><clipPath
       clipPathUnits="userSpaceOnUse"
       id="clipPath157-7"><rect
         style="fill:#000000;stroke:#000000;stroke-width:0;stroke-linejoin:bevel;paint-order:stroke markers fill;stop-color:#000000"
         id="rect157-1"
         width="20"
         height="200"
         x="530"
         y="595" /></clipPath><clipPath
       clipPathUnits="userSpaceOnUse"
       id="clipPath25-8"><rect
         style="fill:#ff0000;stroke:none;stroke-width:3;stroke-linecap:square;stroke-linejoin:miter;paint-order:stroke markers fill;stop-color:#000000"
         id="rect25-8-49"
         width="78"
         height="45.033199"
         x="763.61322"
         y="452.82422" /></clipPath><clipPath
       clipPathUnits="userSpaceOnUse"
       id="clipPath131-7"><path
         id="path131-3"
         style="stroke-width:0.1;stroke-linecap:square;paint-order:markers fill stroke;stop-color:#000000"
         d="M 438.25066,553.76374 H 1298.1212 V 755.15928 H 438.25066 Z"
         sodipodi:nodetypes="ccccc" /></clipPath><clipPath
       clipPathUnits="userSpaceOnUse"
       id="clipPath128-1"><path
         id="path5-0"
         style="stroke-width:0.1;stroke-linecap:square;paint-order:markers fill stroke;stop-color:#000000"
         d="M 438.25066,553.76374 H 1298.1212 V 755.15928 H 438.25066 Z"
         sodipodi:nodetypes="ccccc" /></clipPath><clipPath
       clipPathUnits="userSpaceOnUse"
       id="clipPath55-2"><path
         id="path55-3"
         style="stroke-width:0.1;stroke-linecap:square;paint-order:markers fill stroke;stop-color:#000000"
         d="m 1736.6147,-745.57287 h 1589.4765 v 72.46715 H 1736.6147 Z" /></clipPath><clipPath
       clipPathUnits="userSpaceOnUse"
       id="clipPath119-71"><path
         id="path119-8"
         style="stroke-width:0.0999999;stroke-linecap:square;paint-order:markers fill stroke;stop-color:#000000"
         d="m 1691.1994,-792.32001 h 1634.8919 v 92.82806 H 1691.1994 Z" /></clipPath><clipPath
       clipPathUnits="userSpaceOnUse"
       id="clipPath115-9"><path
         id="path115-3"
         style="stroke-width:0.0999999;stroke-linecap:square;paint-order:markers fill stroke;stop-color:#000000"
         d="m 1806.4991,-753.5228 h 1637.2646 v 66.90533 H 1806.4991 Z" /></clipPath><clipPath
       clipPathUnits="userSpaceOnUse"
       id="clipPath111-7"><path
         id="path111-4"
         style="stroke-width:0.0999999;stroke-linecap:square;paint-order:markers fill stroke;stop-color:#000000"
         d="m 1806.4991,-753.5228 h 1637.2646 v 66.90533 H 1806.4991 Z" /></clipPath><clipPath
       clipPathUnits="userSpaceOnUse"
       id="clipPath98-8"><path
         id="path98-0"
         style="stroke-width:0.1;stroke-linecap:square;paint-order:markers fill stroke;stop-color:#000000"
         d="m -880.82767,-187.29769 h 1640.84 v 73.28155 h -1640.84 z" /></clipPath><clipPath
       clipPathUnits="userSpaceOnUse"
       id="clipPath52-4"><path
         id="path52-05"
         style="stroke-width:0.1;stroke-linecap:square;paint-order:markers fill stroke;stop-color:#000000"
         d="m -880.82767,-187.29769 h 1640.84 v 73.28155 h -1640.84 z" /></clipPath><clipPath
       clipPathUnits="userSpaceOnUse"
       id="clipPath56-7"><path
         id="path56-0"
         style="stroke-width:0.0999999;stroke-linecap:square;paint-order:markers fill stroke;stop-color:#000000"
         d="m 1691.1994,-792.32001 h 1634.8919 v 92.82806 H 1691.1994 Z" /></clipPath><clipPath
       clipPathUnits="userSpaceOnUse"
       id="clipPath5-5"><rect
         style="fill:#000000;stroke:#000000;stroke-width:0;stroke-linejoin:bevel;paint-order:stroke markers fill;stop-color:#000000"
         id="rect5-4-6"
         width="20"
         height="200"
         x="530"
         y="595" /></clipPath><clipPath
       clipPathUnits="userSpaceOnUse"
       id="clipPath24-78"><path
         id="path24-0"
         style="stroke-width:0.0999999;stroke-linecap:square;paint-order:markers fill stroke;stop-color:#000000"
         d="m 1691.1994,-792.32001 h 1634.8919 v 92.82806 H 1691.1994 Z" /></clipPath><clipPath
       clipPathUnits="userSpaceOnUse"
       id="clipPath22-6"><path
         id="path22-5"
         style="stroke-width:0.0999999;stroke-linecap:square;paint-order:markers fill stroke;stop-color:#000000"
         d="m 1806.4991,-753.5228 h 1637.2646 v 66.90533 H 1806.4991 Z" /></clipPath><clipPath
       clipPathUnits="userSpaceOnUse"
       id="clipPath20-7"><path
         id="path20-34"
         style="stroke-width:0.0999999;stroke-linecap:square;paint-order:markers fill stroke;stop-color:#000000"
         d="m 1691.1994,-792.32001 h 1634.8919 v 92.82806 H 1691.1994 Z" /></clipPath><clipPath
       clipPathUnits="userSpaceOnUse"
       id="clipPath51-3"><path
         id="path51-0"
         style="stroke-width:0.0999999;stroke-linecap:square;paint-order:markers fill stroke;stop-color:#000000"
         d="m 1806.4991,-753.5228 h 1637.2646 v 66.90533 H 1806.4991 Z" /></clipPath><clipPath
       clipPathUnits="userSpaceOnUse"
       id="clipPath54-4"><path
         id="path54-8"
         style="stroke-width:0.0999999;stroke-linecap:square;paint-order:markers fill stroke;stop-color:#000000"
         d="m 1691.1994,-792.32001 h 1634.8919 v 92.82806 H 1691.1994 Z" /></clipPath><style
       id="style2-7">
      .a {
        fill: #cff;
      }

      .b {
        fill: #ffc;
      }

      .c {
        opacity: 0.2;
      }

      .d {
        fill: #fff;
      }

      .e {
        opacity: 0.4;
      }
    </style></defs><g
     inkscape:groupmode="layer"
     id="layer3"
     inkscape:label="texte"
     style="display:inline"><g
       id="text1"
       style="font-size:40px;line-height:1.05;display:inline"
       inkscape:label="chemin"
       aria-label="Super&#10;Coding&#10;Ball"><path
         style="font-weight:500;font-family:'Helvetica Neue';-inkscape-font-specification:'Helvetica Neue Medium';text-align:center;text-anchor:middle"
         d="m 146.61348,26.575486 q 0,1.64 0.56,2.8 0.56,1.16 1.56,1.92 1,0.72 2.28,1.08 1.32,0.32 2.84,0.32 1.64,0 2.8,-0.36 1.16,-0.4 1.88,-1 0.72,-0.6 1.04,-1.36 0.32,-0.8 0.32,-1.6 0,-1.64 -0.76,-2.4 -0.72,-0.8 -1.6,-1.12 -1.52,-0.56 -3.56,-1.04 -2,-0.52 -4.96,-1.32 -1.84,-0.48 -3.08,-1.24 -1.2,-0.8 -1.92,-1.76 -0.72,-0.96 -1.04,-2.04 -0.28,-1.08 -0.28,-2.2 0,-2.16 0.88,-3.72 0.92,-1.6000003 2.4,-2.6400003 1.48,-1.04 3.36,-1.52 1.88,-0.52 3.8,-0.52 2.24,0 4.2,0.6 2,0.56 3.48,1.72 1.52,1.1600003 2.4,2.8800003 0.88,1.68 0.88,3.92 h -5 q -0.2,-2.76 -1.88,-3.88 -1.68,-1.16 -4.28,-1.16 -0.88,0 -1.8,0.2 -0.92,0.16 -1.68,0.6 -0.76,0.4 -1.28,1.12 -0.48,0.72 -0.48,1.8 0,1.52 0.92,2.4 0.96,0.84 2.48,1.28 0.16,0.04 1.24,0.36 1.12,0.28 2.48,0.64 1.36,0.36 2.64,0.72 1.32,0.32 1.88,0.48 1.4,0.44 2.44,1.2 1.04,0.76 1.72,1.76 0.72,0.96 1.04,2.08 0.36,1.12 0.36,2.24 0,2.4 -1,4.12 -0.96,1.68 -2.56,2.76 -1.6,1.08 -3.64,1.56 -2.04,0.52 -4.16,0.52 -2.44,0 -4.6,-0.6 -2.16,-0.6 -3.76,-1.84 -1.6,-1.24 -2.56,-3.16 -0.96,-1.96 -1,-4.6 z m 40.16003,9.52 h -4.48 v -2.88 h -0.08 q -0.84,1.56 -2.52,2.52 -1.64,0.92 -3.36,0.92 -4.08,0 -5.92,-2 -1.8,-2.04 -1.8,-6.12 v -13.12 h 4.56 v 12.68 q 0,2.72 1.04,3.84 1.04,1.12 2.92,1.12 1.44,0 2.4,-0.44 0.96,-0.44 1.56,-1.16 0.6,-0.76 0.84,-1.8 0.28,-1.04 0.28,-2.24 v -12 h 4.56 z m 4.91997,-20.68 h 4.32 v 2.8 h 0.08 q 0.96,-1.8 2.68,-2.56 1.72,-0.8 3.72,-0.8 2.44,0 4.24,0.88 1.84,0.84 3.04,2.36 1.2,1.48 1.8,3.48 0.6,2 0.6,4.28 0,2.08 -0.56,4.04 -0.52,1.96 -1.64,3.48 -1.08,1.48 -2.76,2.4 -1.68,0.88 -3.96,0.88 -1,0 -2,-0.2 -1,-0.16 -1.92,-0.56 -0.92,-0.4 -1.72,-1 -0.76,-0.64 -1.28,-1.48 h -0.08 v 10.32 h -4.56 z m 15.92,10.36 q 0,-1.4 -0.36,-2.72 -0.36,-1.32 -1.08,-2.32 -0.72,-1.04 -1.8,-1.64 -1.08,-0.64 -2.48,-0.64 -2.88,0 -4.36,2 -1.44,2 -1.44,5.32 0,1.56 0.36,2.92 0.4,1.32 1.16,2.28 0.76,0.96 1.8,1.52 1.08,0.56 2.48,0.56 1.56,0 2.64,-0.64 1.08,-0.64 1.76,-1.64 0.72,-1.04 1,-2.32 0.32,-1.32 0.32,-2.68 z m 22.60001,-1.84 q -0.08,-1.08 -0.48,-2.08 -0.36,-1 -1.04,-1.72 -0.64,-0.76 -1.6,-1.2 -0.92,-0.48 -2.08,-0.48 -1.2,0 -2.2,0.44 -0.96,0.4 -1.68,1.16 -0.68,0.72 -1.12,1.72 -0.4,1 -0.44,2.16 z m -10.64,3 q 0,1.2 0.32,2.32 0.36,1.12 1.04,1.96 0.68,0.84 1.72,1.36 1.04,0.48 2.48,0.48 2,0 3.2,-0.84 1.24,-0.88 1.84,-2.6 h 4.32 q -0.36,1.68 -1.24,3 -0.88,1.32 -2.12,2.24 -1.24,0.88 -2.8,1.32 -1.52,0.48 -3.2,0.48 -2.44,0 -4.32,-0.8 -1.88,-0.8 -3.2,-2.24 -1.28,-1.44 -1.96,-3.44 -0.64,-2 -0.64,-4.4 0,-2.2 0.68,-4.16 0.72,-2 2,-3.48 1.32,-1.52 3.16,-2.4 1.84,-0.88 4.16,-0.88 2.44,0 4.36,1.04 1.96,1 3.24,2.68 1.28,1.68 1.84,3.88 0.6,2.16 0.32,4.48 z m 18.67999,-11.52 h 4.28 v 4 h 0.08 q 0.2,-0.84 0.76,-1.64 0.6,-0.8 1.4,-1.44 0.84,-0.68 1.84,-1.08 1,-0.4 2.04,-0.4 0.8,0 1.08,0.04 0.32,0.04 0.64,0.08 v 4.4 q -0.48,-0.08 -1,-0.12 -0.48,-0.08 -0.96,-0.08 -1.16,0 -2.2,0.48 -1,0.44 -1.76,1.36 -0.76,0.88 -1.2,2.2 -0.44,1.32 -0.44,3.04 v 9.84 h -4.56 z"
         id="path7" /><path
         style="font-weight:500;font-family:'Helvetica Neue';-inkscape-font-specification:'Helvetica Neue Medium';text-align:center;text-anchor:middle"
         d="m 150.75347,59.840392 q -0.32,-1.24 -0.88,-2.28 -0.56,-1.04 -1.44,-1.8 -0.88,-0.76 -2.08,-1.16 -1.16,-0.44 -2.72,-0.44 -2.28,0 -3.96,0.92 -1.64,0.92 -2.68,2.48 -1.04,1.52 -1.56,3.48 -0.48,1.96 -0.48,4 0,2.04 0.48,4 0.52,1.96 1.56,3.52 1.04,1.52 2.68,2.44 1.68,0.92 3.96,0.92 1.68,0 2.96,-0.56 1.28,-0.6 2.2,-1.6 0.92,-1.04 1.44,-2.4 0.52,-1.36 0.68,-2.92 h 4.88 q -0.16,2.56 -1.12,4.68 -0.92,2.12 -2.52,3.68 -1.6,1.52 -3.76,2.36 -2.16,0.84 -4.76,0.84 -3.2,0 -5.76,-1.16 -2.52,-1.2 -4.28,-3.24 -1.76,-2.04 -2.72,-4.76 -0.92,-2.72 -0.92,-5.8 0,-3.04 0.92,-5.76 0.96,-2.72 2.72,-4.76 1.76,-2.04 4.28,-3.24 2.56,-1.2 5.76,-1.2 2.4,0 4.52,0.68 2.12,0.64 3.72,1.92 1.64,1.24 2.64,3.04 1,1.8 1.24,4.12 z m 18.44001,20.04 q -2.48,0 -4.44,-0.8 -1.92,-0.84 -3.28,-2.28 -1.32,-1.44 -2.04,-3.44 -0.68,-2 -0.68,-4.4 0,-2.36 0.68,-4.36 0.72,-2 2.04,-3.44 1.36,-1.44 3.28,-2.24 1.96,-0.84 4.44,-0.84 2.48,0 4.4,0.84 1.96,0.8 3.28,2.24 1.36,1.44 2.04,3.44 0.72,2 0.72,4.36 0,2.4 -0.72,4.4 -0.68,2 -2.04,3.44 -1.32,1.44 -3.28,2.28 -1.92,0.8 -4.4,0.8 z m 0,-3.6 q 1.52,0 2.64,-0.64 1.12,-0.64 1.84,-1.68 0.72,-1.04 1.04,-2.32 0.36,-1.32 0.36,-2.68 0,-1.32 -0.36,-2.64 -0.32,-1.32 -1.04,-2.32 -0.72,-1.04 -1.84,-1.68 -1.12,-0.64 -2.64,-0.64 -1.52,0 -2.64,0.64 -1.12,0.64 -1.84,1.68 -0.72,1 -1.08,2.32 -0.32,1.32 -0.32,2.64 0,1.36 0.32,2.68 0.36,1.28 1.08,2.32 0.72,1.04 1.84,1.68 1.12,0.64 2.64,0.64 z m 33.72001,3.04 h -4.32 v -2.8 h -0.08 q -0.92,1.8 -2.68,2.6 -1.76,0.76 -3.72,0.76 -2.44,0 -4.28,-0.84 -1.8,-0.88 -3,-2.36 -1.2,-1.48 -1.8,-3.48 -0.6,-2.04 -0.6,-4.36 0,-2.8 0.76,-4.84 0.76,-2.04 2,-3.36 1.28,-1.32 2.88,-1.92 1.64,-0.64 3.32,-0.64 0.96,0 1.96,0.2 1,0.16 1.92,0.56 0.92,0.4 1.68,1.04 0.8,0.6 1.32,1.44 h 0.08 v -10.56 h 4.56 z m -15.92,-10.12 q 0,1.32 0.32,2.6 0.36,1.28 1.04,2.28 0.72,1 1.8,1.6 1.08,0.6 2.56,0.6 1.52,0 2.6,-0.64 1.12,-0.64 1.8,-1.68 0.72,-1.04 1.04,-2.32 0.36,-1.32 0.36,-2.68 0,-3.44 -1.56,-5.36 -1.52,-1.92 -4.16,-1.92 -1.6,0 -2.72,0.68 -1.08,0.64 -1.8,1.72 -0.68,1.04 -1,2.4 -0.28,1.32 -0.28,2.72 z m 21.00001,-18.44 h 4.56 v 4.32 h -4.56 z m 0,7.88 h 4.56 v 20.68 h -4.56 z m 9.51996,0 h 4.32 v 3.04 l 0.08,0.08 q 1.04,-1.72 2.72,-2.68 1.68,-1 3.72,-1 3.4,0 5.36,1.76 1.96,1.76 1.96,5.28 v 14.2 h -4.56 v -13 q -0.08,-2.44 -1.04,-3.52 -0.96,-1.12 -3,-1.12 -1.16,0 -2.08,0.44 -0.92,0.4 -1.56,1.16 -0.64,0.72 -1,1.72 -0.36,1 -0.36,2.12 v 12.2 h -4.56 z m 42.07998,19.6 q 0,4.68 -2.64,6.96 -2.6,2.32 -7.52,2.32 -1.56,0 -3.16,-0.32 -1.56,-0.32 -2.88,-1.08 -1.28,-0.76 -2.16,-2 -0.88,-1.24 -1.04,-3.04 h 4.56 q 0.2,0.96 0.68,1.56 0.48,0.6 1.12,0.92 0.68,0.36 1.48,0.44 0.8,0.12 1.68,0.12 2.76,0 4.04,-1.36 1.28,-1.36 1.28,-3.92 v -3.16 h -0.08 q -0.96,1.72 -2.64,2.68 -1.64,0.96 -3.56,0.96 -2.48,0 -4.24,-0.84 -1.72,-0.88 -2.88,-2.36 -1.12,-1.52 -1.64,-3.48 -0.52,-1.96 -0.52,-4.2 0,-2.08 0.64,-3.96 0.64,-1.88 1.84,-3.28 1.2,-1.44 2.92,-2.28 1.76,-0.84 3.96,-0.84 1.96,0 3.6,0.84 1.64,0.8 2.52,2.56 h 0.08 v -2.84 h 4.56 z m -10.12,-2.52 q 1.52,0 2.56,-0.6 1.08,-0.64 1.72,-1.64 0.68,-1.04 0.96,-2.32 0.32,-1.32 0.32,-2.64 0,-1.32 -0.32,-2.56 -0.32,-1.24 -1,-2.2 -0.64,-0.96 -1.72,-1.52 -1.04,-0.56 -2.52,-0.56 -1.52,0 -2.56,0.64 -1.04,0.64 -1.68,1.68 -0.64,1 -0.92,2.32 -0.28,1.28 -0.28,2.56 0,1.28 0.32,2.52 0.32,1.2 0.96,2.16 0.68,0.96 1.68,1.56 1.04,0.6 2.48,0.6 z"
         id="path9" /><path
         style="font-weight:500;font-family:'Helvetica Neue';-inkscape-font-specification:'Helvetica Neue Medium';text-align:center;text-anchor:middle"
         d="m 168.31349,105.9453 h 8.16 q 1.8,0 3,-1 1.2,-1.04 1.2,-2.96 0,-2.160002 -1.08,-3.040002 -1.08,-0.88 -3.12,-0.88 h -8.16 z m -5,-11.960002 h 13.88 q 3.84,0 6.16,1.76 2.32,1.76 2.32,5.320002 0,2.16 -1.08,3.72 -1.04,1.52 -3,2.36 v 0.08 q 2.64,0.56 4,2.52 1.36,1.92 1.36,4.84 0,1.68 -0.6,3.16 -0.6,1.44 -1.88,2.52 -1.28,1.04 -3.28,1.68 -2,0.6 -4.76,0.6 h -13.12 z m 5,24.480002 h 8.84 q 2.28,0 3.52,-1.16 1.28,-1.2 1.28,-3.36 0,-2.12 -1.28,-3.24 -1.24,-1.16 -3.52,-1.16 h -8.84 z m 39.84002,-0.52 q 0,0.84 0.2,1.2 0.24,0.36 0.88,0.36 0.2,0 0.48,0 0.28,0 0.64,-0.08 v 3.16 q -0.24,0.08 -0.64,0.16 -0.36,0.12 -0.76,0.2 -0.4,0.08 -0.8,0.12 -0.4,0.04 -0.68,0.04 -1.4,0 -2.32,-0.56 -0.92,-0.56 -1.2,-1.96 -1.36,1.32 -3.36,1.92 -1.96,0.6 -3.8,0.6 -1.4,0 -2.68,-0.4 -1.28,-0.36 -2.28,-1.08 -0.96,-0.76 -1.56,-1.88 -0.56,-1.16 -0.56,-2.68 0,-1.92 0.68,-3.12 0.72,-1.2 1.84,-1.88 1.16,-0.68 2.56,-0.96 1.44,-0.32 2.88,-0.48 1.24,-0.24 2.36,-0.32 1.12,-0.12 1.96,-0.36 0.88,-0.24 1.36,-0.72 0.52,-0.52 0.52,-1.52 0,-0.88 -0.44,-1.44 -0.4,-0.56 -1.04,-0.84 -0.6,-0.32 -1.36,-0.4 -0.76,-0.12 -1.44,-0.12 -1.92,0 -3.16,0.8 -1.24,0.8 -1.4,2.48 h -4.56 q 0.12,-2 0.96,-3.32 0.84,-1.32 2.12,-2.12 1.32,-0.8 2.96,-1.12 1.64,-0.32 3.36,-0.32 1.52,0 3,0.32 1.48,0.32 2.64,1.04 1.2,0.72 1.92,1.88 0.72,1.12 0.72,2.76 z m -4.56,-5.76 q -1.04,0.68 -2.56,0.84 -1.52,0.12 -3.04,0.4 -0.72,0.12 -1.4,0.36 -0.68,0.2 -1.2,0.6 -0.52,0.36 -0.84,1 -0.28,0.6 -0.28,1.48 0,0.76 0.44,1.28 0.44,0.52 1.04,0.84 0.64,0.28 1.36,0.4 0.76,0.12 1.36,0.12 0.76,0 1.64,-0.2 0.88,-0.2 1.64,-0.68 0.8,-0.48 1.32,-1.2 0.52,-0.76 0.52,-1.84 z m 9.59999,-18.200002 h 4.56 V 122.5453 h -4.56 z m 9.63997,0 h 4.56 V 122.5453 h -4.56 z"
         id="path11" /></g><text
       xml:space="preserve"
       style="font-style:normal;font-weight:normal;font-size:40px;line-height:1.05;font-family:sans-serif;display:none;fill:#000000;fill-opacity:1;stroke:none"
       x="230.14064"
       y="71.095322"
       id="text6"
       inkscape:label="police"
       transform="translate(-35.02718,-34.999836)"><tspan
         sodipodi:role="line"
         id="tspan4"
         x="230.14064"
         y="71.095322"
         style="font-style:normal;font-variant:normal;font-weight:500;font-stretch:normal;line-height:1.05;font-family:'Helvetica Neue';-inkscape-font-specification:'Helvetica Neue Medium';text-align:center;text-anchor:middle">Super</tspan><tspan
         sodipodi:role="line"
         x="230.14064"
         y="114.32023"
         id="tspan5"
         style="font-style:normal;font-variant:normal;font-weight:500;font-stretch:normal;line-height:1.05;font-family:'Helvetica Neue';-inkscape-font-specification:'Helvetica Neue Medium';text-align:center;text-anchor:middle">Coding</tspan><tspan
         sodipodi:role="line"
         x="230.14064"
         y="157.54514"
         id="tspan6"
         style="font-style:normal;font-variant:normal;font-weight:500;font-stretch:normal;line-height:1.05;font-family:'Helvetica Neue';-inkscape-font-specification:'Helvetica Neue Medium';text-align:center;text-anchor:middle">Ball</tspan></text></g><g
     id="g2"
     transform="matrix(1.0609545,0,0,1.0597708,-41.118711,-41.030034)"
     inkscape:label="icone"><g
       id="g1"
       inkscape:label="bloc"><path
         class="a"
         d="M 148.00401,61.47018 H 52.890859 v 86.18631 H 148.51537 V 61.47018 Z"
         id="path6"
         style="display:inline;fill:#4c97ff;fill-opacity:1;stroke:#000000;stroke-width:2.11112;stroke-dasharray:none;stroke-opacity:1"
         inkscape:label="bleu"
         sodipodi:nodetypes="cccccc"
         inkscape:export-filename="icon-512x512.png"
         inkscape:export-xdpi="396.43442"
         inkscape:export-ydpi="396.43442" /><path
         d="m 157.52485,143.49601 c 1.4706,4.8e-4 2.66267,1.09627 2.66319,2.44815 v 11.82869 c -4.1e-4,1.16664 -0.89662,2.17084 -2.14121,2.39919 -0.52714,0.0513 -1.05759,0.0676 -1.58727,0.049 H 46.736131 c -0.07456,0 -0.138486,-0.01 -0.213054,-0.01 -1.752921,-0.0478 -3.420662,-0.70582 -4.665845,-1.841 -0.127899,-0.11752 -0.245014,-0.23503 -0.362195,-0.36232 -1.085006,-1.15346 -1.682425,-2.62721 -1.683136,-4.1521 V 49.456479 c -0.0012,-1.334249 0.542423,-2.620314 1.523345,-3.603741 0.710559,-0.729827 1.623838,-1.26808 2.641884,-1.557028 10.312454,-2.959611 21.048493,-4.484549 31.851753,-4.524199 13.837935,0 25.524027,3.300119 33.673387,5.875583 h 48.02263 c 1.47062,4.84e-4 2.66268,1.096279 2.6632,2.44816 v 11.82867 c -0.008,1.349108 -1.19559,2.441009 -2.6632,2.448159 H 88.122169 l -6.178602,3.789752 c -1.972696,1.189844 -4.525486,1.189844 -6.498183,0 l -5.773796,-3.544936 -0.266319,-0.166474 -0.138486,-0.07834 h -5.486171 c -2.058238,0.0021 -3.726205,1.535371 -3.728467,3.427423 v 74.269022 c 0.0023,1.89204 1.670231,3.42535 3.728467,3.42743 z"
         id="path12"
         style="display:inline;fill:#ffbf00;fill-opacity:1;stroke:#000000;stroke-width:2.11112;stroke-dasharray:none;stroke-opacity:1"
         inkscape:label="jaune"
         sodipodi:nodetypes="cccccscccccccccccccccccccccccc" /></g><g
       id="g160"
       inkscape:label="traits"
       transform="matrix(0.34310451,0,0,0.34333482,91.404192,62.627282)"
       style="fill:none;stroke:#000000;stroke-width:12.3019;stroke-dasharray:none;stroke-opacity:1"><g
         id="g3"><path
           style="fill:none;stroke:#000000;stroke-width:12.3019;stroke-linecap:round;stroke-linejoin:miter;stroke-dasharray:none;stroke-opacity:1"
           d="M -67.188938,211.39621 91.760943,151.91682"
           id="path160-0-0-5"
           inkscape:label="bas"
           sodipodi:nodetypes="cc" /><path
           style="fill:none;stroke:#000000;stroke-width:12.3019;stroke-linecap:round;stroke-linejoin:miter;stroke-dasharray:none;stroke-opacity:1"
           d="M -67.188938,168.33012 91.760957,108.85073"
           id="path160-0-0"
           inkscape:label="milieu"
           sodipodi:nodetypes="cc" /><path
           style="fill:none;stroke:#000000;stroke-width:12.3019;stroke-linecap:round;stroke-linejoin:miter;stroke-dasharray:none;stroke-opacity:1"
           d="M -67.188938,125.26401 91.760943,65.784644"
           id="path160-0-0-1"
           inkscape:label="haut"
           sodipodi:nodetypes="cc" /></g></g><g
       id="g159"
       transform="matrix(0.11399447,0.32397537,-0.32346985,0.114071,142.26433,58.463817)"
       inkscape:label="ballon"><path
         fill="#000000"
         id="circle1"
         style="display:inline;fill:#4c97ff;fill-opacity:1;stroke:none;stroke-width:1.05215;stroke-opacity:1"
         inkscape:label="bleu"
         sodipodi:type="arc"
         sodipodi:cx="97"
         sodipodi:cy="97"
         sodipodi:rx="102.05824"
         sodipodi:ry="102.05824"
         sodipodi:start="0.8713902"
         sodipodi:end="2.2170733"
         sodipodi:arc-type="slice"
         d="M 162.70136,175.09748 A 102.05824,102.05824 0 0 1 35.538651,178.4763 L 97,97 Z" /><circle
         fill="#000000"
         cx="97"
         cy="97"
         r="93.965057"
         id="circle1-3"
         style="display:inline;stroke:#000000;stroke-width:0.968712;stroke-opacity:1"
         inkscape:label="noir" /><path
         fill="#ffffff"
         d="M 94,9.2 C 73.700172,9.901416 54.268006,17.60362 39,31 H 66 L 94,16.6 Z m 6,0 v 7.4 L 128,31 h 27 C 139.73199,17.60362 120.29983,9.901416 100,9.2 Z M 32.8,37 c -9.179572,9.731587 -16.019568,21.42798 -20,34.2 l 16,27.6 23,-3.6 21,-36.2 -8.4,-22 z m 96.8,0 -8.4,22 21,36.2 23,3.6 L 181,71.4 C 177.10581,58.575112 170.33357,46.809196 161.2,37 Z M 79.6,63 59.4,98.2 77.2,129 h 39.6 L 134.6,98.2 114.4,63 Z M 10.8,79.6 C 9.6235893,85.325822 9.020611,91.154612 9,97 c 0.016412,14.44439 3.588153,28.66267 10.4,41.4 l 7.4,-4.4 -1.4,-29 z m 172.4,0.2 -14.6,25.2 -1.4,29 7.4,4.4 c 6.81185,-12.73733 10.38359,-26.95561 10.4,-41.4 -0.0338,-5.778527 -0.63673,-11.539673 -1.8,-17.2 z m -106,57.2 -15.4,19 15.4,26.6 c 6.487722,1.54777 13.130375,2.35294 19.8,2.4 6.66962,-0.0471 13.31228,-0.85223 19.8,-2.4 L 132.2,156 116.8,137 Z m -47.8,2.6 -7,4 c 10.750656,17.2589 27.146296,30.26234 46.4,36.8 l -14,-24.6 z m 135.2,0 -25.4,16.2 -14,24.4 c 19.22326,-6.48655 35.61477,-19.41606 46.4,-36.6 z"
         id="path1"
         sodipodi:nodetypes="ccccccccccccccccccccccccccccccccccccccccccccccccccccccccccccc"
         style="display:inline;stroke:#000000;stroke-opacity:1"
         inkscape:label="blanc" /></g></g></svg>
