<?xml version="1.0" encoding="UTF-8" standalone="no"?>
<svg
   viewBox="0 0 200 200"
   version="1.1"
   id="svg22"
   sodipodi:docname="SuperCodingBallAppIcon.svg"
   width="200"
   height="200"
   inkscape:version="1.4 (e7c3feb1, 2024-10-09)"
   inkscape:export-filename="icon-maskable-512x512.png"
   inkscape:export-xdpi="245.75999"
   inkscape:export-ydpi="245.75999"
   xml:space="preserve"
   xmlns:inkscape="http://www.inkscape.org/namespaces/inkscape"
   xmlns:sodipodi="http://sodipodi.sourceforge.net/DTD/sodipodi-0.dtd"
   xmlns="http://www.w3.org/2000/svg"
   xmlns:svg="http://www.w3.org/2000/svg"><sodipodi:namedview
     id="namedview24"
     pagecolor="#ffffff"
     bordercolor="#666666"
     borderopacity="1.0"
     inkscape:pageshadow="2"
     inkscape:pageopacity="0.0"
     inkscape:pagecheckerboard="true"
     showgrid="false"
     width="200px"
     inkscape:zoom="2"
     inkscape:cx="95.5"
     inkscape:cy="99.5"
     inkscape:window-width="1440"
     inkscape:window-height="755"
     inkscape:window-x="0"
     inkscape:window-y="25"
     inkscape:window-maximized="1"
     inkscape:current-layer="svg22"
     inkscape:snap-to-guides="true"
     inkscape:snap-page="true"
     inkscape:showpageshadow="2"
     inkscape:deskcolor="#d1d1d1" /><defs
     id="defs4"><clipPath
       clipPathUnits="userSpaceOnUse"
       id="clipPath157"><rect
         style="fill:#000000;stroke:#000000;stroke-width:0;stroke-linejoin:bevel;paint-order:stroke markers fill;stop-color:#000000"
         id="rect157"
         width="20"
         height="200"
         x="530"
         y="595" /></clipPath><clipPath
       clipPathUnits="userSpaceOnUse"
       id="clipPath25"><rect
         style="fill:#ff0000;stroke:none;stroke-width:3;stroke-linecap:square;stroke-linejoin:miter;paint-order:stroke markers fill;stop-color:#000000"
         id="rect25-8"
         width="78"
         height="45.033199"
         x="763.61322"
         y="452.82422" /></clipPath><clipPath
       clipPathUnits="userSpaceOnUse"
       id="clipPath131"><path
         id="path131"
         style="stroke-width:0.1;stroke-linecap:square;paint-order:markers fill stroke;stop-color:#000000"
         d="M 438.25066,553.76374 H 1298.1212 V 755.15928 H 438.25066 Z"
         sodipodi:nodetypes="ccccc" /></clipPath><clipPath
       clipPathUnits="userSpaceOnUse"
       id="clipPath128"><path
         id="path5"
         style="stroke-width:0.1;stroke-linecap:square;paint-order:markers fill stroke;stop-color:#000000"
         d="M 438.25066,553.76374 H 1298.1212 V 755.15928 H 438.25066 Z"
         sodipodi:nodetypes="ccccc" /></clipPath><clipPath
       clipPathUnits="userSpaceOnUse"
       id="clipPath55"><path
         id="path55"
         style="stroke-width:0.1;stroke-linecap:square;paint-order:markers fill stroke;stop-color:#000000"
         d="m 1736.6147,-745.57287 h 1589.4765 v 72.46715 H 1736.6147 Z" /></clipPath><clipPath
       clipPathUnits="userSpaceOnUse"
       id="clipPath119"><path
         id="path119"
         style="stroke-width:0.0999999;stroke-linecap:square;paint-order:markers fill stroke;stop-color:#000000"
         d="m 1691.1994,-792.32001 h 1634.8919 v 92.82806 H 1691.1994 Z" /></clipPath><clipPath
       clipPathUnits="userSpaceOnUse"
       id="clipPath115"><path
         id="path115"
         style="stroke-width:0.0999999;stroke-linecap:square;paint-order:markers fill stroke;stop-color:#000000"
         d="m 1806.4991,-753.5228 h 1637.2646 v 66.90533 H 1806.4991 Z" /></clipPath><clipPath
       clipPathUnits="userSpaceOnUse"
       id="clipPath111"><path
         id="path111"
         style="stroke-width:0.0999999;stroke-linecap:square;paint-order:markers fill stroke;stop-color:#000000"
         d="m 1806.4991,-753.5228 h 1637.2646 v 66.90533 H 1806.4991 Z" /></clipPath><clipPath
       clipPathUnits="userSpaceOnUse"
       id="clipPath98"><path
         id="path98"
         style="stroke-width:0.1;stroke-linecap:square;paint-order:markers fill stroke;stop-color:#000000"
         d="m -880.82767,-187.29769 h 1640.84 v 73.28155 h -1640.84 z" /></clipPath><clipPath
       clipPathUnits="userSpaceOnUse"
       id="clipPath52"><path
         id="path52"
         style="stroke-width:0.1;stroke-linecap:square;paint-order:markers fill stroke;stop-color:#000000"
         d="m -880.82767,-187.29769 h 1640.84 v 73.28155 h -1640.84 z" /></clipPath><clipPath
       clipPathUnits="userSpaceOnUse"
       id="clipPath56"><path
         id="path56"
         style="stroke-width:0.0999999;stroke-linecap:square;paint-order:markers fill stroke;stop-color:#000000"
         d="m 1691.1994,-792.32001 h 1634.8919 v 92.82806 H 1691.1994 Z" /></clipPath><linearGradient
       id="swatch46"
       inkscape:swatch="solid"><stop
         style="stop-color:#ccffcc;stop-opacity:1;"
         offset="0"
         id="stop47" /></linearGradient><linearGradient
       id="swatch42"
       inkscape:swatch="solid"><stop
         style="stop-color:#ccffcc;stop-opacity:1;"
         offset="0"
         id="stop42" /></linearGradient><clipPath
       clipPathUnits="userSpaceOnUse"
       id="clipPath5"><rect
         style="fill:#000000;stroke:#000000;stroke-width:0;stroke-linejoin:bevel;paint-order:stroke markers fill;stop-color:#000000"
         id="rect5-4"
         width="20"
         height="200"
         x="530"
         y="595" /></clipPath><clipPath
       clipPathUnits="userSpaceOnUse"
       id="clipPath24"><path
         id="path24"
         style="stroke-width:0.0999999;stroke-linecap:square;paint-order:markers fill stroke;stop-color:#000000"
         d="m 1691.1994,-792.32001 h 1634.8919 v 92.82806 H 1691.1994 Z" /></clipPath><clipPath
       clipPathUnits="userSpaceOnUse"
       id="clipPath22"><path
         id="path22"
         style="stroke-width:0.0999999;stroke-linecap:square;paint-order:markers fill stroke;stop-color:#000000"
         d="m 1806.4991,-753.5228 h 1637.2646 v 66.90533 H 1806.4991 Z" /></clipPath><clipPath
       clipPathUnits="userSpaceOnUse"
       id="clipPath20"><path
         id="path20"
         style="stroke-width:0.0999999;stroke-linecap:square;paint-order:markers fill stroke;stop-color:#000000"
         d="m 1691.1994,-792.32001 h 1634.8919 v 92.82806 H 1691.1994 Z" /></clipPath><clipPath
       clipPathUnits="userSpaceOnUse"
       id="clipPath51"><path
         id="path51"
         style="stroke-width:0.0999999;stroke-linecap:square;paint-order:markers fill stroke;stop-color:#000000"
         d="m 1806.4991,-753.5228 h 1637.2646 v 66.90533 H 1806.4991 Z" /></clipPath><clipPath
       clipPathUnits="userSpaceOnUse"
       id="clipPath54"><path
         id="path54"
         style="stroke-width:0.0999999;stroke-linecap:square;paint-order:markers fill stroke;stop-color:#000000"
         d="m 1691.1994,-792.32001 h 1634.8919 v 92.82806 H 1691.1994 Z" /></clipPath><style
       id="style2">
      .a {
        fill: #cff;
      }

      .b {
        fill: #ffc;
      }

      .c {
        opacity: 0.2;
      }

      .d {
        fill: #fff;
      }

      .e {
        opacity: 0.4;
      }
    </style></defs><rect
     style="display:none;fill:#ccffcc;fill-opacity:1;stroke:none;stroke-width:48.967;stroke-dasharray:none"
     id="rect36"
     width="200"
     height="200"
     x="5.3290705e-15"
     y="1.9539925e-14"
     inkscape:label="fond"
     inkscape:export-filename="icon-maskable-512x512.png"
     inkscape:export-xdpi="245.75999"
     inkscape:export-ydpi="245.75999" /><rect
     style="display:inline;fill:none;fill-opacity:1;stroke:none;stroke-width:31.3393;stroke-dasharray:none"
     id="rect36-4"
     width="128"
     height="128"
     x="41"
     y="41"
     inkscape:label="cadre"
     inkscape:export-filename="icon-192x192.png"
     inkscape:export-xdpi="144"
     inkscape:export-ydpi="144"
     transform="translate(-5,-5)" /><g
     id="g2"
     transform="matrix(0.94789387,0,0,0.94683632,5.2106135,5.3163753)"
     inkscape:label="icone"><g
       id="g1"
       inkscape:label="bloc"><path
         class="a"
         d="M 148.00401,61.47018 H 52.890859 v 86.18631 H 148.51537 V 61.47018 Z"
         id="path6"
         style="display:inline;fill:#4c97ff;fill-opacity:1;stroke:#000000;stroke-width:2.11111885;stroke-dasharray:none;stroke-opacity:1"
         inkscape:label="bleu"
         sodipodi:nodetypes="cccccc"
         inkscape:export-filename="icon-512x512.png"
         inkscape:export-xdpi="396.43442"
         inkscape:export-ydpi="396.43442" /><path
         d="m 157.52485,143.49601 c 1.4706,4.8e-4 2.66267,1.09627 2.66319,2.44815 v 11.82869 c -4.1e-4,1.16664 -0.89662,2.17084 -2.14121,2.39919 -0.52714,0.0513 -1.05759,0.0676 -1.58727,0.049 H 46.736131 c -0.07456,0 -0.138486,-0.01 -0.213054,-0.01 -1.752921,-0.0478 -3.420662,-0.70582 -4.665845,-1.841 -0.127899,-0.11752 -0.245014,-0.23503 -0.362195,-0.36232 -1.085006,-1.15346 -1.682425,-2.62721 -1.683136,-4.1521 V 49.456479 c -0.0012,-1.334249 0.542423,-2.620314 1.523345,-3.603741 0.710559,-0.729827 1.623838,-1.26808 2.641884,-1.557028 10.312454,-2.959611 21.048493,-4.484549 31.851753,-4.524199 13.837935,0 25.524027,3.300119 33.673387,5.875583 h 48.02263 c 1.47062,4.84e-4 2.66268,1.096279 2.6632,2.44816 v 11.82867 c -0.008,1.349108 -1.19559,2.441009 -2.6632,2.448159 H 88.122169 l -6.178602,3.789752 c -1.972696,1.189844 -4.525486,1.189844 -6.498183,0 l -5.773796,-3.544936 -0.266319,-0.166474 -0.138486,-0.07834 h -5.486171 c -2.058238,0.0021 -3.726205,1.535371 -3.728467,3.427423 v 74.269022 c 0.0023,1.89204 1.670231,3.42535 3.728467,3.42743 z"
         id="path12"
         style="display:inline;fill:#ffbf00;fill-opacity:1;stroke:#000000;stroke-width:2.11111885;stroke-dasharray:none;stroke-opacity:1"
         inkscape:label="jaune"
         sodipodi:nodetypes="cccccscccccccccccccccccccccccc" /></g><g
       id="g160"
       inkscape:label="traits"
       transform="matrix(0.34310451,0,0,0.34333482,91.404192,62.627282)"
       style="fill:none;stroke:#000000;stroke-width:12.3019;stroke-dasharray:none;stroke-opacity:1"><g
         id="g3"><path
           style="fill:none;stroke:#000000;stroke-width:12.3019;stroke-dasharray:none;stroke-opacity:1;stroke-linecap:round;stroke-linejoin:miter"
           d="M -67.188938,211.39621 91.760943,151.91682"
           id="path160-0-0-5"
           inkscape:label="bas"
           sodipodi:nodetypes="cc"
           transform="translate(6.4846148e-7)" /><path
           style="fill:none;stroke:#000000;stroke-width:12.3019;stroke-dasharray:none;stroke-opacity:1;stroke-linecap:round;stroke-linejoin:miter"
           d="M -67.188938,168.33012 91.760957,108.85073"
           id="path160-0-0"
           inkscape:label="milieu"
           sodipodi:nodetypes="cc"
           transform="translate(6.4846148e-7)" /><path
           style="fill:none;stroke:#000000;stroke-width:12.3019;stroke-linecap:round;stroke-linejoin:miter;stroke-dasharray:none;stroke-opacity:1"
           d="M -67.188938,125.26401 91.760943,65.784644"
           id="path160-0-0-1"
           inkscape:label="haut"
           sodipodi:nodetypes="cc" /></g></g><g
       id="g159"
       transform="matrix(0.11399447,0.32397537,-0.32346985,0.114071,142.26433,58.463817)"
       inkscape:label="ballon"><path
         fill="#000000"
         id="circle1"
         style="display:inline;fill:#4c97ff;fill-opacity:1;stroke:none;stroke-width:1.05215;stroke-opacity:1"
         inkscape:label="bleu"
         sodipodi:type="arc"
         sodipodi:cx="97"
         sodipodi:cy="97"
         sodipodi:rx="102.05824"
         sodipodi:ry="102.05824"
         sodipodi:start="0.8713902"
         sodipodi:end="2.2170733"
         sodipodi:arc-type="slice"
         d="M 162.70136,175.09748 A 102.05824,102.05824 0 0 1 35.538651,178.4763 L 97,97 Z" /><circle
         fill="#000000"
         cx="97"
         cy="97"
         r="93.965057"
         id="circle1-3"
         style="display:inline;stroke:#000000;stroke-width:0.968712;stroke-opacity:1"
         inkscape:label="noir" /><path
         fill="#ffffff"
         d="M 94,9.2 C 73.700172,9.901416 54.268006,17.60362 39,31 H 66 L 94,16.6 Z m 6,0 v 7.4 L 128,31 h 27 C 139.73199,17.60362 120.29983,9.901416 100,9.2 Z M 32.8,37 c -9.179572,9.731587 -16.019568,21.42798 -20,34.2 l 16,27.6 23,-3.6 21,-36.2 -8.4,-22 z m 96.8,0 -8.4,22 21,36.2 23,3.6 L 181,71.4 C 177.10581,58.575112 170.33357,46.809196 161.2,37 Z M 79.6,63 59.4,98.2 77.2,129 h 39.6 L 134.6,98.2 114.4,63 Z M 10.8,79.6 C 9.6235893,85.325822 9.020611,91.154612 9,97 c 0.016412,14.44439 3.588153,28.66267 10.4,41.4 l 7.4,-4.4 -1.4,-29 z m 172.4,0.2 -14.6,25.2 -1.4,29 7.4,4.4 c 6.81185,-12.73733 10.38359,-26.95561 10.4,-41.4 -0.0338,-5.778527 -0.63673,-11.539673 -1.8,-17.2 z m -106,57.2 -15.4,19 15.4,26.6 c 6.487722,1.54777 13.130375,2.35294 19.8,2.4 6.66962,-0.0471 13.31228,-0.85223 19.8,-2.4 L 132.2,156 116.8,137 Z m -47.8,2.6 -7,4 c 10.750656,17.2589 27.146296,30.26234 46.4,36.8 l -14,-24.6 z m 135.2,0 -25.4,16.2 -14,24.4 c 19.22326,-6.48655 35.61477,-19.41606 46.4,-36.6 z"
         id="path1"
         sodipodi:nodetypes="ccccccccccccccccccccccccccccccccccccccccccccccccccccccccccccc"
         style="display:inline;stroke:#000000;stroke-opacity:1"
         inkscape:label="blanc" /></g></g></svg>
