<?xml version="1.0" encoding="UTF-8" standalone="no"?>
<svg
   viewBox="0 0 200 200"
   version="1.1"
   id="svg22"
   sodipodi:docname="SuperCodingBallAppIcon.svg"
   width="200"
   height="200"
   inkscape:version="1.1 (c68e22c387, 2021-05-23)"
   inkscape:export-filename="C:\Applications\Projects\SuperCodingBall\src\assets\app-icons\icon-maskable-512x512.png"
   inkscape:export-xdpi="245.75999"
   inkscape:export-ydpi="245.75999"
   xmlns:inkscape="http://www.inkscape.org/namespaces/inkscape"
   xmlns:sodipodi="http://sodipodi.sourceforge.net/DTD/sodipodi-0.dtd"
   xmlns="http://www.w3.org/2000/svg"
   xmlns:svg="http://www.w3.org/2000/svg">
  <sodipodi:namedview
     id="namedview24"
     pagecolor="#ffffff"
     bordercolor="#666666"
     borderopacity="1.0"
     inkscape:pageshadow="2"
     inkscape:pageopacity="0.0"
     inkscape:pagecheckerboard="true"
     showgrid="false"
     width="200px"
     inkscape:zoom="3.1741238"
     inkscape:cx="88.055797"
     inkscape:cy="101.28779"
     inkscape:window-width="1920"
     inkscape:window-height="1001"
     inkscape:window-x="-9"
     inkscape:window-y="-9"
     inkscape:window-maximized="1"
     inkscape:current-layer="svg22"
     inkscape:snap-to-guides="true"
     inkscape:snap-page="true" />
  <defs
     id="defs4">
    <style
       id="style2">
      .a {
        fill: #cff;
      }

      .b {
        fill: #ffc;
      }

      .c {
        opacity: 0.2;
      }

      .d {
        fill: #fff;
      }

      .e {
        opacity: 0.4;
      }
    </style>
  </defs>
  <rect
     style="display:inline;fill:#ccffcc;fill-opacity:1;stroke:none;stroke-width:48.9669"
     id="rect36"
     width="200"
     height="200"
     x="5.3290705e-15"
     y="1.9539925e-14"
     inkscape:label="fond"
     inkscape:export-filename="C:\Applications\Projects\SuperCodingBall\src\assets\app-icons\icon-maskable-512x512.png"
     inkscape:export-xdpi="245.75999"
     inkscape:export-ydpi="245.75999" />
  <rect
     style="display:inline;fill:none;fill-opacity:1;stroke:none;stroke-width:34.5053"
     id="rect1199"
     width="135.47046"
     height="135.47046"
     x="32.264771"
     y="32.264771"
     inkscape:label="cadre"
     inkscape:export-filename="C:\Applications\Projects\SuperCodingBall\src\assets\app-icons\icon-512x512.png"
     inkscape:export-xdpi="362.82449"
     inkscape:export-ydpi="362.82449" />
  <g
     inkscape:groupmode="layer"
     id="layer1"
     inkscape:label="blocs"
     style="display:inline">
    <path
       class="a"
       d="M 152.51972,45.499903 H 51.811993 V 153.9999 a 3.7944071,3.504 0 0 0 3.790076,3.5 H 153.06116 V 45.499903 Z"
       id="path6"
       style="display:inline;stroke-width:1.04061"
       inkscape:label="bleu" />
    <path
       class="b"
       d="m 155.22692,58.999903 a 3.329549,3.07472 0 0 0 2.30653,-0.88 c 0.21657,-0.2 3.85505,-3.56 6.46478,-5.97 a 3.2809602,3.02985 0 0 0 0.97459,-2.15 v -6 a 3.2443047,2.996 0 0 0 -3.24863,-3 h -48.72955 c -8.64137,-2.76 -20.000768,-6 -34.316425,-6 a 106.78663,98.61365 0 0 0 -32.529677,4.65 4.64307,4.28771 0 0 0 -0.498125,0.17 6.5217564,6.02261 0 0 0 -2.014154,1.16 l -6.832965,6.31 a 6.3144609,5.83118 0 0 0 -1.775921,4.1 V 158.0299 a 7.5691925,6.98988 0 0 0 1.87338,4.57 c 0.119117,0.12 0.238233,0.25 0.368179,0.36 a 7.5414383,6.96425 0 0 0 4.602234,2.01 c 0.249063,0.02 0.487296,0.03 0.736358,0.03 H 155.22692 a 3.139363,2.89909 0 0 0 2.26321,-0.85 l 6.60556,-6.08 a 3.4432296,3.1797 0 0 0 0.87713,-2.07 v -6 a 3.2443047,2.996 0 0 0 -3.24863,-3 h -8.66303 V 58.999903 Z m -2.7072,87.999997 H 66.430857 a 3.2443047,2.996 0 0 1 -3.248637,-3 V 55.999903 h 4.331515 l 6.139923,3.78 a 6.4913708,5.99455 0 0 0 7.211972,0 l 6.139923,-3.78 h 62.601227 a 2.6853444,2.47982 0 0 1 2.28487,0.9 3.0215674,2.79031 0 0 1 0.62807,2.1 z"
       id="path8"
       style="display:inline;stroke-width:1.04061"
       inkscape:export-filename="C:\Applications\projects\super-coding-ball\src\assets\app-icons\icon-192x192.png"
       inkscape:export-xdpi="141.78426"
       inkscape:export-ydpi="141.78426"
       inkscape:label="jaune" />
    <path
       class="c"
       d="m 155.22692,58.999903 a 3.329549,3.07472 0 0 0 2.30653,-0.88 c 0.21657,-0.2 3.85505,-3.56 6.46478,-5.97 a 3.2809602,3.02985 0 0 0 0.97459,-2.15 v -6 a 3.2443047,2.996 0 0 0 -3.24863,-3 h -48.72955 c -8.64137,-2.76 -20.000768,-6 -34.316425,-6 a 106.78663,98.61365 0 0 0 -32.529677,4.65 4.64307,4.28771 0 0 0 -0.498125,0.17 6.5217564,6.02261 0 0 0 -2.014154,1.16 l -6.832965,6.31 a 6.3144609,5.83118 0 0 0 -1.775921,4.1 V 158.0299 a 7.5691925,6.98988 0 0 0 1.87338,4.57 c 0.119117,0.12 0.238233,0.25 0.368179,0.36 a 7.5414383,6.96425 0 0 0 4.602234,2.01 c 0.249063,0.02 0.487296,0.03 0.736358,0.03 H 155.22692 a 3.139363,2.89909 0 0 0 2.26321,-0.85 l 6.60556,-6.08 a 3.4432296,3.1797 0 0 0 0.87713,-2.07 v -6 a 3.2443047,2.996 0 0 0 -3.24863,-3 h -8.66303 V 58.999903 Z m -5.62014,-3 a 2.6853444,2.47982 0 0 1 2.28487,0.9 3.0215674,2.79031 0 0 1 0.62807,2.1 V 146.9999 H 66.430857 a 3.2443047,2.996 0 0 1 -3.248637,-3 V 55.999903 h 4.331515 l 6.139923,3.78 a 6.4913708,5.99455 0 0 0 7.211972,0 l 6.139923,-3.78 z m 12.11741,91.499997 a 2.7081715,2.5009 0 0 1 2.7072,2.5 v 6 a 2.7062873,2.49916 0 0 1 -2.17659,2.45 11.240195,10.37992 0 0 1 -1.61349,0.05 H 49.104797 c -0.0758,0 -0.140775,-0.01 -0.216576,-0.01 a 7.0315757,6.49341 0 0 1 -4.742944,-1.88 c -0.130011,-0.12 -0.249062,-0.24 -0.368179,-0.37 a 7.0241688,6.48657 0 0 1 -1.710948,-4.24 V 45.389903 a 5.8892902,5.43855 0 0 1 1.548516,-3.68005 5.966088,5.50947 0 0 1 2.68554,-1.59 110.1209,101.69273 0 0 1 32.378074,-4.62 c 14.066595,0 25.94578,3.37 34.2298,6 h 48.81617 a 2.7081715,2.5009 0 0 1 2.7072,2.5 v 6 a 2.7216641,2.51336 0 0 1 -2.7072,2.5 H 91.174701 l -6.280697,3.87 a 6.0205026,5.55972 0 0 1 -6.60556,0 l -5.869203,-3.62 -0.27072,-0.17 -0.140774,-0.08 h -5.576825 a 3.7942447,3.50385 0 0 0 -3.790076,3.5 v 87.999997 a 3.7942555,3.50386 0 0 0 3.790076,3.5 z"
       id="path10"
       style="display:inline;stroke-width:1.04061"
       inkscape:label="ombre" />
    <path
       d="m 155.22692,58.999903 a 3.329549,3.07472 0 0 0 2.30653,-0.88 c 0.21657,-0.2 3.85505,-3.56 6.46478,-5.97 a 3.2809602,3.02985 0 0 0 0.97459,-2.15 v -6 a 3.2443047,2.996 0 0 0 -3.24863,-3 h -48.72955 c -8.64137,-2.76 -20.000768,-6 -34.316425,-6 a 106.78663,98.61365 0 0 0 -32.529677,4.65 4.64307,4.28771 0 0 0 -0.498125,0.17 6.5217564,6.02261 0 0 0 -2.014154,1.16 l -6.832965,6.31 a 6.3144609,5.83118 0 0 0 -1.775921,4.1 V 158.0299 a 7.5691925,6.98988 0 0 0 1.87338,4.57 c 0.119117,0.12 0.238233,0.25 0.368179,0.36 a 7.5414383,6.96425 0 0 0 4.602234,2.01 c 0.249063,0.02 0.487296,0.03 0.736358,0.03 H 155.22692 a 3.139363,2.89909 0 0 0 2.26321,-0.85 l 6.60556,-6.08 a 3.4432296,3.1797 0 0 0 0.87713,-2.07 v -6 a 3.2443047,2.996 0 0 0 -3.24863,-3 h -8.66303 V 58.999903 Z m -119.658108,-7.61 a 5.893416,5.44236 0 0 1 1.992497,-4.09 l 1.591832,-1.48 2.837142,-2.61 a 6.3794336,5.89118 0 0 0 -0.465638,2.18005 V 151.31995 l -5.955833,5.5 z m 0,106.609997 v -0.47 l 5.955833,-5.5 a 7.5691925,6.98988 0 0 0 1.873381,4.57 l -6.118265,5.64 a 7.0241688,6.48657 0 0 1 -1.710895,-4.24 z m 6.822136,6.49 a 7.0315757,6.49341 0 0 1 -4.742944,-1.88 l 6.118265,-5.65 a 7.5414383,6.96425 0 0 0 4.602235,2.01 z m 114.850122,-0.83 a 2.6640333,2.46014 0 0 1 -2.01415,0.84 H 43.149018 l 5.955833,-5.5 H 160.64136 a 6.4740881,5.97859 0 0 0 1.87338,-0.1 c 0,0 -4.91627,4.42995 -5.27368,4.75997 z m 4.48312,-16.16 a 2.7081715,2.5009 0 0 1 2.7072,2.5 v 6 a 2.7062873,2.49916 0 0 1 -2.17659,2.45 11.240195,10.37992 0 0 1 -1.61349,0.05 H 49.104797 c -0.0758,0 -0.140775,-0.01 -0.216576,-0.01 a 7.0315757,6.49341 0 0 1 -4.742944,-1.88 c -0.130011,-0.12 -0.249062,-0.24 -0.368179,-0.37 a 7.0241688,6.48657 0 0 1 -1.710948,-4.24 V 45.389903 a 5.8892902,5.43855 0 0 1 1.548516,-3.68005 5.966088,5.50947 0 0 1 2.68554,-1.59 110.1209,101.69273 0 0 1 32.378074,-4.62 c 14.066595,0 25.94578,3.37 34.2298,6 h 48.81617 a 2.7081715,2.5009 0 0 1 2.7072,2.5 v 6 a 2.7216641,2.51336 0 0 1 -2.7072,2.5 H 91.174701 l -6.280697,3.87 a 6.0205026,5.55972 0 0 1 -6.60556,0 l -5.869203,-3.62 -0.27072,-0.17 -0.140774,-0.08 h -5.576825 a 3.7942447,3.50385 0 0 0 -3.790076,3.5 v 87.999997 a 3.7942555,3.50386 0 0 0 3.790076,3.5 z M 77.389589,60.279903 a 6.2101147,5.73482 0 0 1 -3.432725,-0.91 l -5.825888,-3.6 3.93085,-2.62 5.923347,3.63 a 6.4547587,5.96074 0 0 0 3.21615,0.98 z m 4.569749,-2.52 a 5.580529,5.15342 0 0 0 1.645976,-0.27 l -3.04289,1.88 a 6.0850639,5.61934 0 0 1 -2.328189,0.84 z m -14.304828,-2.26 h -4.428975 a 3.2486363,3 0 0 1 3.205322,-2.5 h 5.013728 z m -0.140775,0.5 6.139923,3.78 a 6.4913708,5.99455 0 0 0 7.211972,0 l 6.139923,-3.78 h 62.601227 a 2.6853444,2.47982 0 0 1 2.28487,0.9 3.0215674,2.79031 0 0 1 0.62807,2.1 V 146.9999 H 66.430857 a 3.2443047,2.996 0 0 1 -3.248637,-3 V 55.999903 Z m 85.536595,2.5 a 3.2383814,2.99053 0 0 0 -0.93128,-2.13 3.1717519,2.929 0 0 0 -2.30653,-0.87 H 87.612019 l 3.790076,-2.5 h 70.322145 a 3.148849,2.90785 0 0 0 0.64973,-0.06 c 0,0 -4.82964,4.44 -5.20865,4.8 a 2.8970363,2.67531 0 0 1 -1.93835,0.76 z"
       id="path12"
       style="display:inline;stroke-width:1.04061"
       inkscape:label="contours" />
  </g>
  <g
     id="layer2"
     inkscape:label="ballon"
     style="display:inline"
     transform="matrix(1.1679015,0,0,1.2016533,-15.844044,-19.627947)">
    <circle
       class="d"
       cx="106.34239"
       cy="100.9999"
       id="circle14"
       style="display:inline"
       r="32.765961"
       inkscape:label="blanc" />
    <path
       d="m 108.61857,133.65018 c 23.20046,-1.76319 37.82747,-27.44984 26.675,-48.344237 v 0 l -3.2e-4,-5.3e-4 c -9.55468,-18.26713 -34.39072,-22.73565 -50.022385,-9.19909 l -0.05011,0.0035 0.0025,0.03744 c -20.39573,17.12823 -12.71694,50.670337 13.01867,56.718367 l 5e-5,5.8e-4 a 33.01361,33.01361 0 0 0 10.376555,0.78402 z m 20.29037,-51.519227 -4.57845,7.9561 -13.8614,-1.828 -7.99301,-9.14319 4.88076,-7.48753 13.56006,1.54342 z m -2.21932,22.495997 6.39332,4.22138 -3.3773,11.423 -11.41578,7.00975 -5.73478,-4.62121 3.397,-11.45859 z m -16.63522,-16.182507 -4.99494,12.962997 -12.913005,3.3262 -8.47259,-9.427197 6.18022,-13.14993 12.244365,-2.81287 z m -17.744875,16.695997 12.836125,-3.30636 10.36112,9.33994 -3.37783,11.39389 -13.980585,3.3988 -9.31854,-9.27827 z m 36.724105,18.57509 a 32.69026,32.69026 0 0 1 -13.86512,8.27941 l 3.00372,-4.13212 11.63778,-7.14605 1.41176,0.58753 q -1.02823,1.24987 -2.18814,2.41125 z m 9.6201,-22.9385 c -0.001,0.24481 -0.0155,0.48761 -0.0224,0.73157 l -5.35,6.95035 -6.51944,-4.30464 -2.11707,-13.742497 4.61642,-8.022 5.3647,2.59341 a 31.8749,31.8749 0 0 1 4.02777,15.793827 z m -17.94238,-28.947997 -10e-5,0.88181 -13.81887,-1.57291 -5.16601,-2.12485 a 32.3332,32.3332 0 0 1 18.98498,2.81597 z m -29.384205,0.64941 -4.33485,3.50917 -1.00253,0.06911 a 32.81739,32.81739 0 0 1 5.33738,-3.57828 z m -7.75691,5.77409 c 0.60343,-0.60344 1.23132,-1.17229 1.87146,-1.72237 l 1.49475,-0.103 2.52947,5.53428 -6.2768,13.35538 -6.75725,5.800227 c -0.47886,-0.32245 -1.29486,-0.86394 -2.42685,-1.610507 a 32.55032,32.55032 0 0 1 9.56522,-21.25399 z m -9.58415,21.762407 c 0.83112,0.54838 1.81243,1.19843 2.32518,1.54364 l 3.19512,12.74527 -1.86488,2.08226 a 31.88884,31.88884 0 0 1 -3.65542,-16.37117 z m 9.29521,23.9896 a 31.89849,31.89849 0 0 1 -5.41514,-7.2181 l 1.927,-2.15157 8.60978,2.24157 9.5299,9.48792 0.28793,6.05416 a 31.658,31.658 0 0 1 -14.93947,-8.41398 z"
       id="path16"
       style="display:inline"
       inkscape:label="motifs" />
    <path
       class="e"
       d="m 106.34246,67.999903 c -6.548155,-0.0075 -12.948608,1.94556 -18.377005,5.60765 -0.24342,0.15913 -0.47746,0.32763 -0.7115,0.49614 -0.20593,0.14982 -0.42129,0.29958 -0.62722,0.4494 -16.136492,12.018084 -25.540955,33.501667 -12.128179,51.359687 13.301119,17.70936 46.272654,10.93935 58.290734,-5.19714 0.14976,-0.206 0.29958,-0.42129 0.44934,-0.62722 0.16851,-0.234 0.33707,-0.46808 0.4962,-0.7115 14.7295,-21.916227 -0.98631,-51.392747 -27.39235,-51.376997 z m 26.1098,52.378727 c -12.94245,9.6239 -30.98391,8.30443 -42.388446,-3.10009 C 78.65928,105.87403 77.339788,87.832567 86.963675,74.890103 c 12.942456,-9.62382 30.983855,-8.304312 42.388345,3.100181 11.4045,11.404493 12.72401,29.445886 3.10019,42.388346 z"
       id="path18"
       style="display:inline"
       sodipodi:nodetypes="scccscccsscscscc"
       inkscape:label="ombre" />
  </g>
</svg>
