<?xml version="1.0" encoding="UTF-8" standalone="no"?>
<svg
   viewBox="0 0 640 640"
   version="1.1"
   id="svg1"
   sodipodi:docname="arrows-left-right-to-line-solid.svg"
   inkscape:export-filename="arrows-left-right-to-line-solid.png"
   inkscape:export-xdpi="96"
   inkscape:export-ydpi="96"
   inkscape:version="1.4 (e7c3feb1, 2024-10-09)"
   width="640"
   height="640"
   xmlns:inkscape="http://www.inkscape.org/namespaces/inkscape"
   xmlns:sodipodi="http://sodipodi.sourceforge.net/DTD/sodipodi-0.dtd"
   xmlns="http://www.w3.org/2000/svg"
   xmlns:svg="http://www.w3.org/2000/svg">
  <defs
     id="defs1" />
  <sodipodi:namedview
     id="namedview1"
     pagecolor="#ffffff"
     bordercolor="#666666"
     borderopacity="1.0"
     inkscape:showpageshadow="2"
     inkscape:pageopacity="0.0"
     inkscape:pagecheckerboard="true"
     inkscape:deskcolor="#d1d1d1"
     inkscape:zoom="0.21543957"
     inkscape:cx="700.8926"
     inkscape:cy="459.52561"
     inkscape:window-width="1440"
     inkscape:window-height="751"
     inkscape:window-x="0"
     inkscape:window-y="25"
     inkscape:window-maximized="1"
     inkscape:current-layer="svg1" />
  <!--!Font Awesome Free 6.7.1 by @fontawesome - https://fontawesome.com License - https://fontawesome.com/license/free Copyright 2024 Fonticons, Inc.-->
  <path
     d="m 32,128 c 17.7,0 32,14.3 32,32 V 480 C 64,497.7 49.7,512 32,512 14.3,512 0,497.7 0,480 V 160 c 0,-17.7 14.3,-32 32,-32 z m 214.6,73.4 c 12.5,12.5 12.5,32.8 0,45.3 L 205.3,288 h 229.5 l -41.4,-41.4 c -12.5,-12.5 -12.5,-32.8 0,-45.3 12.5,-12.5 32.8,-12.5 45.3,0 l 96,96 c 12.5,12.5 12.5,32.8 0,45.3 l -96,96 c -12.5,12.5 -32.8,12.5 -45.3,0 -12.5,-12.5 -12.5,-32.8 0,-45.3 L 434.7,352 H 205.2 l 41.4,41.4 c 12.5,12.5 12.5,32.8 0,45.3 -12.5,12.5 -32.8,12.5 -45.3,0 l -96,-96 c -12.5,-12.5 -12.5,-32.8 0,-45.3 l 96,-96 c 12.5,-12.5 32.8,-12.5 45.3,0 z M 640,160 v 320 c 0,17.7 -14.3,32 -32,32 -17.7,0 -32,-14.3 -32,-32 V 160 c 0,-17.7 14.3,-32 32,-32 17.7,0 32,14.3 32,32 z"
     id="path1"
     style="fill:#ffffff;fill-opacity:1;stroke:none" />
</svg>
