<?xml version="1.0" encoding="UTF-8" standalone="no"?>
<svg
   viewBox="0 0 512 512"
   version="1.1"
   id="svg1"
   sodipodi:docname="arrows-split-up-and-left-solid.svg"
   inkscape:export-filename="arrows-split-up-and-left-solid.png"
   inkscape:export-xdpi="24"
   inkscape:export-ydpi="24"
   inkscape:version="1.4 (e7c3feb1, 2024-10-09)"
   xmlns:inkscape="http://www.inkscape.org/namespaces/inkscape"
   xmlns:sodipodi="http://sodipodi.sourceforge.net/DTD/sodipodi-0.dtd"
   xmlns="http://www.w3.org/2000/svg"
   xmlns:svg="http://www.w3.org/2000/svg">
  <defs
     id="defs1" />
  <sodipodi:namedview
     id="namedview1"
     pagecolor="#ffffff"
     bordercolor="#666666"
     borderopacity="1.0"
     inkscape:showpageshadow="2"
     inkscape:pageopacity="0.0"
     inkscape:pagecheckerboard="true"
     inkscape:deskcolor="#d1d1d1"
     showguides="true"
     inkscape:zoom="0.65689073"
     inkscape:cx="242.04939"
     inkscape:cy="225.30383"
     inkscape:window-width="1440"
     inkscape:window-height="751"
     inkscape:window-x="0"
     inkscape:window-y="25"
     inkscape:window-maximized="1"
     inkscape:current-layer="svg1" />
  <!--!Font Awesome Free 6.7.1 by @fontawesome - https://fontawesome.com License - https://fontawesome.com/license/free Copyright 2024 Fonticons, Inc.-->
  <path
     d="m 265.425,150.6 c 12.5,12.5 32.8,12.5 45.3,0 12.5,-12.5 12.5,-32.8 0,-45.3 l -96,-96 c -12.5,-12.5 -32.8,-12.5 -45.3,0 l -96,96 c -12.5,12.5 -12.5,32.8 0,45.3 12.5,12.5 32.8,12.5 45.3,0 l 41.3,-41.3 V 384 c 0,35.3 -28.7,64 -64,64 h -64 c -17.7,0 -32,14.3 -32,32 0,17.7 14.3,32 32,32 h 64 c 70.7,0 128,-57.3 128,-128 0,-35.3 28.7,-64 64,-64 h 114.7 l -41.4,41.4 c -12.5,12.5 -12.5,32.8 0,45.3 12.5,12.5 32.8,12.5 45.3,0 l 96,-96 c 12.5,-12.5 12.5,-32.8 0,-45.3 l -96,-96 c -12.5,-12.5 -32.8,-12.5 -45.3,0 -12.5,12.5 -12.5,32.8 0,45.3 l 41.4,41.3 h -114.7 c -23.3,0 -45.2,6.2 -64,17.1 V 109.2 Z"
     id="path1"
     style="stroke:none;fill:#ffffff;fill-opacity:1" />
</svg>
