<?xml version="1.0" encoding="UTF-8" standalone="no"?>
<svg
   viewBox="0 0 512 512"
   version="1.1"
   id="svg1"
   sodipodi:docname="flag-checkered-solid.svg"
   width="512"
   height="512"
   inkscape:export-filename="flag-checkered-solid.png"
   inkscape:export-xdpi="24"
   inkscape:export-ydpi="24"
   inkscape:version="1.4 (e7c3feb1, 2024-10-09)"
   xmlns:inkscape="http://www.inkscape.org/namespaces/inkscape"
   xmlns:sodipodi="http://sodipodi.sourceforge.net/DTD/sodipodi-0.dtd"
   xmlns="http://www.w3.org/2000/svg"
   xmlns:svg="http://www.w3.org/2000/svg">
  <defs
     id="defs1" />
  <sodipodi:namedview
     id="namedview1"
     pagecolor="#ffffff"
     bordercolor="#666666"
     borderopacity="1.0"
     inkscape:showpageshadow="2"
     inkscape:pageopacity="0.0"
     inkscape:pagecheckerboard="true"
     inkscape:deskcolor="#d1d1d1"
     inkscape:zoom="0.27657267"
     inkscape:cx="564.04705"
     inkscape:cy="480.88626"
     inkscape:window-width="1440"
     inkscape:window-height="755"
     inkscape:window-x="0"
     inkscape:window-y="25"
     inkscape:window-maximized="1"
     inkscape:current-layer="svg1" />
  <!--!Font Awesome Free 6.7.2 by @fontawesome - https://fontawesome.com License - https://fontawesome.com/license/free Copyright 2025 Fonticons, Inc.-->
  <path
     d="m 64,0 c 17.7,0 32,14.3 32,32 v 16 l 69,-17.2 c 38.1,-9.5 78.3,-5.1 113.5,12.5 46.3,23.2 100.8,23.2 147.1,0 l 9.6,-4.8 C 455.8,28.1 480,43.1 480,66.1 v 279.7 c 0,13.3 -8.3,25.3 -20.8,30 l -34.7,13 c -46.2,17.3 -97.6,14.6 -141.7,-7.4 -37.9,-19 -81.3,-23.7 -122.5,-13.4 L 96,384 v 96 c 0,17.7 -14.3,32 -32,32 -17.7,0 -32,-14.3 -32,-32 V 400 334 64 32 C 32,14.3 46.3,0 64,0 Z m 32,187.1 64,-13.9 v 65.5 L 96,252.6 V 318 l 48.8,-12.2 c 5.1,-1.3 10.1,-2.4 15.2,-3.3 v -63.9 l 38.9,-8.4 c 8.3,-1.8 16.7,-2.5 25.1,-2.1 v -64 c 13.6,0.4 27.2,2.6 40.4,6.4 l 23.6,6.9 v 66.7 L 246.3,231.8 C 239,229.7 231.5,228.4 224,228 v 71.4 c 21.8,1.9 43.3,6.7 64,14.4 V 244 l 22.7,6.7 c 13.5,4 27.3,6.4 41.3,7.4 v -64.2 c -7.8,-0.8 -15.6,-2.3 -23.2,-4.5 l -40.8,-12 v -62 c -13,-3.8 -25.8,-8.8 -38.2,-15 -8.2,-4.1 -16.9,-7 -25.8,-8.8 V 164 c -13,-0.4 -26,0.8 -38.7,3.6 L 160,173.2 V 98 l -64,16 z m 256,148.6 c 16.8,1.5 33.9,-0.7 50,-6.8 l 14,-5.2 V 252 l -7.9,1.8 c -18.4,4.3 -37.3,5.7 -56.1,4.5 z m 64,-149.4 v -70.8 c -20.9,6.1 -42.4,9.1 -64,9.1 V 194 c 13.9,1.4 28,0.5 41.7,-2.6 l 22.3,-5.2 z"
     id="path1"
     style="fill:#ffffff;fill-opacity:1" />
</svg>
