<?xml version="1.0" encoding="UTF-8" standalone="no"?>
<svg
   aria-hidden="true"
   focusable="false"
   data-prefix="fas"
   data-icon="flag-checkered"
   class="svg-inline--fa fa-flag-checkered fa-w-16"
   role="img"
   viewBox="0 0 512 512"
   version="1.1"
   id="svg4"
   sodipodi:docname="flag-checkered-solid.svg"
   inkscape:export-filename="C:\Applications\Projects\SuperCodingBall-OpenSource\src\assets\icons\flag-checkered-solid.png"
   inkscape:export-xdpi="24"
   inkscape:export-ydpi="24"
   inkscape:version="1.1 (c68e22c387, 2021-05-23)"
   xmlns:inkscape="http://www.inkscape.org/namespaces/inkscape"
   xmlns:sodipodi="http://sodipodi.sourceforge.net/DTD/sodipodi-0.dtd"
   xmlns="http://www.w3.org/2000/svg"
   xmlns:svg="http://www.w3.org/2000/svg">
  <defs
     id="defs8" />
  <sodipodi:namedview
     id="namedview6"
     pagecolor="#ffffff"
     bordercolor="#666666"
     borderopacity="1.0"
     inkscape:pageshadow="2"
     inkscape:pageopacity="0.0"
     inkscape:pagecheckerboard="true"
     showgrid="false"
     inkscape:zoom="0.79296875"
     inkscape:cx="-203.03448"
     inkscape:cy="328.51232"
     inkscape:window-width="1920"
     inkscape:window-height="1001"
     inkscape:window-x="-9"
     inkscape:window-y="-9"
     inkscape:window-maximized="1"
     inkscape:current-layer="svg4" />
  <path
     fill="currentColor"
     d="M 239.24985,189.9 V 258 c 26.1,5.9 49.3,15.6 73.6,22.3 v -68.2 c -26,-5.8 -49.4,-15.5 -73.6,-22.2 z m 223.3,-123 c -34.3,15.9 -76.5,31.9 -117,31.9 -53.5,0 -97.8,-34.8 -165.2,-34.8 -25,0 -47.3,4.4 -68,12 2.8,-7.3 4.1,-15.2 3.6,-23.6 C 114.14985,24 90.849846,1.2 62.349846,0 c -32,-1.3 -58.2999998,24.3 -58.2999998,56 0,19 9.4999998,35.8 23.9999998,45.9 V 488 c 0,13.3 10.7,24 24,24 h 16 c 13.3,0 24,-10.7 24,-24 v -94.4 c 28.300004,-12.1 63.600004,-22.1 114.400004,-22.1 53.6,0 97.8,34.8 165.2,34.8 48.2,0 86.7,-16.3 122.5,-40.9 8.7,-6 13.8,-15.8 13.8,-26.4 V 95.9 c 0.1,-23.3 -24.2,-38.8 -45.4,-29 z m -296.9,258.6 c -25.8,2.7 -50,8.2 -73.600004,16.6 v -70.5 c 26.200004,-9.3 47.500004,-15 73.600004,-17.4 z m 294.4,-134.5 c -23.6,9.8 -46.3,19.5 -73.6,23.9 V 286 c 24.8,-3.4 51.4,-11.8 73.6,-26 v 70.5 c -25.1,16.1 -48.5,24.7 -73.6,27.1 V 286 c -27,3.7 -47.9,1.5 -73.6,-5.6 v 67.4 c -23.9,-7.4 -47.3,-16.7 -73.6,-21.3 V 258 c -19.7,-4.4 -40.8,-6.8 -73.6,-3.8 v -70 c -22.4,3.1 -44.6,10.2 -73.600004,20.9 v -70.5 c 33.200004,-12.2 50.100004,-19.8 73.600004,-22 v 71.6 c 27,-3.7 48.4,-1.3 73.6,5.7 v -67.4 c 23.7,7.4 47.2,16.7 73.6,21.3 v 68.4 c 23.7,5.3 47.6,6.9 73.6,2.7 V 143 c 27,-4.8 52.3,-13.6 73.6,-22.5 z"
     id="path2"
     style="fill:#ffffff;fill-opacity:1" />
</svg>
