<?xml version="1.0" encoding="UTF-8" standalone="no"?>
<svg
   viewBox="0 0 512 512"
   version="1.1"
   id="svg1"
   sodipodi:docname="flask-solid.svg"
   width="512"
   height="512"
   inkscape:export-filename="flask-solid.png"
   inkscape:export-xdpi="24"
   inkscape:export-ydpi="24"
   inkscape:version="1.4 (e7c3feb1, 2024-10-09)"
   xmlns:inkscape="http://www.inkscape.org/namespaces/inkscape"
   xmlns:sodipodi="http://sodipodi.sourceforge.net/DTD/sodipodi-0.dtd"
   xmlns="http://www.w3.org/2000/svg"
   xmlns:svg="http://www.w3.org/2000/svg">
  <defs
     id="defs1" />
  <sodipodi:namedview
     id="namedview1"
     pagecolor="#ffffff"
     bordercolor="#666666"
     borderopacity="1.0"
     inkscape:showpageshadow="2"
     inkscape:pageopacity="0.0"
     inkscape:pagecheckerboard="true"
     inkscape:deskcolor="#d1d1d1"
     inkscape:zoom="0.41877889"
     inkscape:cx="391.61477"
     inkscape:cy="479.96688"
     inkscape:window-width="1440"
     inkscape:window-height="755"
     inkscape:window-x="0"
     inkscape:window-y="25"
     inkscape:window-maximized="1"
     inkscape:current-layer="svg1" />
  <!--!Font Awesome Free 6.7.2 by @fontawesome - https://fontawesome.com License - https://fontawesome.com/license/free Copyright 2025 Fonticons, Inc.-->
  <path
     d="M 320,0 H 192 160 c -17.7,0 -32,14.3 -32,32 0,17.7 14.3,32 32,32 v 132.8 c 0,11.8 -3.3,23.5 -9.5,33.5 L 42.3,406.2 c -6.7,11 -10.3,23.5 -10.3,36.4 0,38.3 31.1,69.4 69.4,69.4 h 309.2 c 38.3,0 69.4,-31.1 69.4,-69.4 0,-12.8 -3.6,-25.4 -10.3,-36.4 L 361.5,230.4 C 355.3,220.3 352,208.7 352,196.9 V 64 C 369.7,64 384,49.7 384,32 384,14.3 369.7,0 352,0 Z M 224,196.8 V 64 h 64 v 132.8 c 0,23.7 6.6,46.9 19,67.1 l 34.5,56.1 h -171 L 205,263.9 c 12.4,-20.2 19,-43.4 19,-67.1 z"
     id="path1"
     style="fill:#ffffff;fill-opacity:1" />
</svg>
