<?xml version="1.0" encoding="UTF-8" standalone="no"?>
<svg
   aria-hidden="true"
   focusable="false"
   data-prefix="far"
   data-icon="futbol"
   class="svg-inline--fa fa-futbol fa-w-16"
   role="img"
   viewBox="0 0 495.98444 496"
   version="1.1"
   id="svg4"
   sodipodi:docname="futbol-regular-question-mark.svg"
   width="495.98444"
   height="496"
   inkscape:export-filename="C:\Applications\Projects\SuperCodingBall\src\assets\icons\futbol-regular-question-mark.png"
   inkscape:export-xdpi="24.774193"
   inkscape:export-ydpi="24.774193"
   inkscape:version="1.1 (c68e22c387, 2021-05-23)"
   xmlns:inkscape="http://www.inkscape.org/namespaces/inkscape"
   xmlns:sodipodi="http://sodipodi.sourceforge.net/DTD/sodipodi-0.dtd"
   xmlns="http://www.w3.org/2000/svg"
   xmlns:svg="http://www.w3.org/2000/svg">
  <defs
     id="defs8" />
  <sodipodi:namedview
     id="namedview6"
     pagecolor="#ffffff"
     bordercolor="#666666"
     borderopacity="1.0"
     inkscape:pageshadow="2"
     inkscape:pageopacity="0.0"
     inkscape:pagecheckerboard="true"
     showgrid="false"
     inkscape:zoom="1.1214272"
     inkscape:cx="282.67551"
     inkscape:cy="346.43356"
     inkscape:window-width="1920"
     inkscape:window-height="1001"
     inkscape:window-x="-9"
     inkscape:window-y="-9"
     inkscape:window-maximized="1"
     inkscape:current-layer="svg4" />
  <path
     fill="currentColor"
     d="m 483.79222,171.4 c -34,-104.8 -131.2,-171.4 -235.7,-171.4 -25.4,0 -51.2,3.9 -76.7,12.2 C 41.192216,54.5 -30.107784,194.4 12.192216,324.6 c 34,104.8 131.200004,171.4 235.700004,171.4 25.4,0 51.2,-3.9 76.7,-12.2 130.2,-42.3 201.5,-182.2 159.2,-312.4 z m -50.57364,211.00527 -59.94066,7.34905 -17.75171,-36.65933 40.11695,-123.63912 37.1161,-21.3608 44.66843,41.79771 c -0.22966,35.25245 -8.49734,70.16043 -24.91786,102.42733 -5.39696,10.67909 -12.28669,20.43954 -19.29125,30.08516 z m 0,-270.30712 -11.9422,60.97412 -41.41694,6.07301 -105.55361,-76.45238 -7.93358,-42.497394 54.42888,-30.085161 c 45.01291,14.927752 84.28438,43.634966 112.41745,81.987805 z M 175.54263,30.225174 229.62702,60.195506 221.69344,102.6929 116.13983,179.14528 74.837716,173.07227 63.240002,112.78712 C 91.143414,74.434284 129.72591,45.497412 175.54263,30.225174 Z M 122.83618,389.75432 61.862055,382.29045 C 45.3267,359.20985 19.030892,313.85245 18.456748,249.89278 l 44.783254,-41.79771 37.116108,21.52522 39.95254,122.15939 z m 55.34751,76.93533 -25.72166,-55.23268 30.42977,-28.60309 h 129.22919 l 31.53108,28.60309 -25.72166,55.23268 c -7.11939,2.06692 -66.14142,23.42509 -139.74672,0 z m 95.438,-177.40887 h -56.40625 v -7.65625 c 0,-8.54167 1.71875,-16.09375 5.15625,-22.65625 3.4375,-6.66667 10.67708,-15.10417 21.71875,-25.3125 l 10,-9.0625 c 5.9375,-5.41667 10.26042,-10.52083 12.96875,-15.3125 2.8125,-4.79167 4.21875,-9.58333 4.21875,-14.375 0,-7.29167 -2.5,-12.96875 -7.5,-17.03125 -5,-4.16667 -11.97917,-6.25 -20.9375,-6.25 -8.4375,0 -17.55208,1.77083 -27.34375,5.3125 -9.79167,3.4375 -20,8.59375 -30.625,15.46875 v -49.0625 c 12.60417,-4.375 24.11458,-7.60417 34.53125,-9.6875 10.41667,-2.08333 20.46875,-3.125 30.15625,-3.125 25.41667,0 44.79167,5.20833 58.125,15.625 13.33333,10.3125 20,25.41667 20,45.3125 0,10.20833 -2.03125,19.375 -6.09375,27.5 -4.0625,8.02083 -10.98958,16.66667 -20.78125,25.9375 l -10,8.90625 c -7.08333,6.45833 -11.71875,11.66667 -13.90625,15.625 -2.1875,3.85417 -3.69993,8.14374 -3.28125,12.8125 z m -56.40625,23.125 h 56.40625 v 55.625 h -56.40625 z"
     id="path2"
     sodipodi:nodetypes="csccsccccccccccccccccccccccccccccccccccccccccsccccscscccsscsccccscccccc"
     style="fill:#ffffff;fill-opacity:1" />
  <text
     xml:space="preserve"
     style="font-style:normal;font-variant:normal;font-weight:bold;font-stretch:normal;font-size:266.667px;line-height:1.25;font-family:sans-serif;-inkscape-font-specification:'sans-serif, Bold';font-variant-ligatures:normal;font-variant-caps:normal;font-variant-numeric:normal;font-variant-east-asian:normal;display:none;fill:#ffffff;fill-opacity:1;stroke:none"
     x="162.67203"
     y="369.06406"
     id="text1434"><tspan
       sodipodi:role="line"
       id="tspan1432"
       x="-0.0077842851"
       y="-8"
       style="font-style:normal;font-variant:normal;font-weight:bold;font-stretch:normal;font-size:320px;font-family:sans-serif;-inkscape-font-specification:'sans-serif, Bold';font-variant-ligatures:normal;font-variant-caps:normal;font-variant-numeric:normal;font-variant-east-asian:normal">?</tspan></text>
</svg>
