<?xml version="1.0" encoding="UTF-8" standalone="no"?>
<svg
   viewBox="0 0 512 512"
   version="1.1"
   id="svg1"
   sodipodi:docname="pause.svg"
   width="512"
   height="512"
   inkscape:export-filename="pause.png"
   inkscape:export-xdpi="18"
   inkscape:export-ydpi="18"
   inkscape:version="1.4 (e7c3feb1, 2024-10-09)"
   xmlns:inkscape="http://www.inkscape.org/namespaces/inkscape"
   xmlns:sodipodi="http://sodipodi.sourceforge.net/DTD/sodipodi-0.dtd"
   xmlns="http://www.w3.org/2000/svg"
   xmlns:svg="http://www.w3.org/2000/svg">
  <defs
     id="defs1" />
  <sodipodi:namedview
     id="namedview1"
     pagecolor="#ffffff"
     bordercolor="#666666"
     borderopacity="1.0"
     inkscape:showpageshadow="2"
     inkscape:pageopacity="0.0"
     inkscape:pagecheckerboard="true"
     inkscape:deskcolor="#d1d1d1"
     inkscape:zoom="0.23639638"
     inkscape:cx="224.19971"
     inkscape:cy="241.12044"
     inkscape:window-width="1440"
     inkscape:window-height="751"
     inkscape:window-x="0"
     inkscape:window-y="25"
     inkscape:window-maximized="1"
     inkscape:current-layer="svg1" />
  <!--!Font Awesome Free 6.7.2 by @fontawesome - https://fontawesome.com License - https://fontawesome.com/license/free Copyright 2025 Fonticons, Inc.-->
  <path
     d="m 144,64 c -26.5,0 -48,21.5 -48,48 v 288 c 0,26.5 21.5,48 48,48 h 32 c 26.5,0 48,-21.5 48,-48 V 112 C 224,85.5 202.5,64 176,64 Z m 192,0 c -26.5,0 -48,21.5 -48,48 v 288 c 0,26.5 21.5,48 48,48 h 32 c 26.5,0 48,-21.5 48,-48 V 112 C 416,85.5 394.5,64 368,64 Z"
     id="path1" />
</svg>
