<?xml version="1.0" encoding="UTF-8" standalone="no"?>
<svg
   viewBox="0 0 512 512"
   version="1.1"
   id="svg1"
   sodipodi:docname="running-solid.svg"
   width="512"
   height="512"
   inkscape:export-filename="running-solid.png"
   inkscape:export-xdpi="24"
   inkscape:export-ydpi="24"
   inkscape:version="1.4 (e7c3feb1, 2024-10-09)"
   xmlns:inkscape="http://www.inkscape.org/namespaces/inkscape"
   xmlns:sodipodi="http://sodipodi.sourceforge.net/DTD/sodipodi-0.dtd"
   xmlns="http://www.w3.org/2000/svg"
   xmlns:svg="http://www.w3.org/2000/svg">
  <defs
     id="defs1" />
  <sodipodi:namedview
     id="namedview1"
     pagecolor="#ffffff"
     bordercolor="#666666"
     borderopacity="1.0"
     inkscape:showpageshadow="2"
     inkscape:pageopacity="0.0"
     inkscape:pagecheckerboard="true"
     inkscape:deskcolor="#d1d1d1"
     inkscape:zoom="0.22701164"
     inkscape:cx="211.4429"
     inkscape:cy="17.620242"
     inkscape:window-width="1440"
     inkscape:window-height="751"
     inkscape:window-x="0"
     inkscape:window-y="25"
     inkscape:window-maximized="1"
     inkscape:current-layer="svg1" />
  <!--!Font Awesome Free 6.7.2 by @fontawesome - https://fontawesome.com License - https://fontawesome.com/license/free Copyright 2025 Fonticons, Inc.-->
  <path
     d="m 368,48 a 48,48 0 1 0 -96,0 48,48 0 1 0 96,0 z M 173.7,175.5 c 9.9,-9.9 23.4,-15.5 37.5,-15.5 1.9,0 3.8,0.1 5.6,0.3 L 185.6,254 c -9.3,28 1.7,58.8 26.8,74.5 l 86.2,53.9 -25.4,88.8 c -4.9,17 5,34.7 22,39.6 17,4.9 34.7,-5 39.6,-22 l 28.7,-100.4 c 5.9,-20.6 -2.6,-42.6 -20.7,-53.9 L 286,299 l 30.9,-82.4 5.1,12.3 c 15,35.8 49.9,59.1 88.7,59.1 H 432 c 17.7,0 32,-14.3 32,-32 0,-17.7 -14.3,-32 -32,-32 h -21.3 c -12.9,0 -24.6,-7.8 -29.5,-19.7 l -6.3,-15 c -14.6,-35.1 -44.1,-61.9 -80.5,-73.1 l -48.7,-15 C 234.6,97.8 223,96 211.3,96 c -31,0 -60.8,12.3 -82.7,34.3 l -23.2,23.1 c -12.5,12.5 -12.5,32.8 0,45.3 12.5,12.5 32.8,12.5 45.3,0 l 23.1,-23.1 z M 139.2,352 H 80 c -17.7,0 -32,14.3 -32,32 0,17.7 14.3,32 32,32 h 69.6 c 19,0 36.2,-11.2 43.9,-28.5 l 11.5,-25.9 -9.5,-6 C 178,344.7 165,328.8 157.6,310.7 Z"
     id="path1"
     style="fill:#ffffff;fill-opacity:1" />
</svg>
