<?xml version="1.0" encoding="UTF-8" standalone="no"?>
<svg
   aria-hidden="true"
   focusable="false"
   data-prefix="fas"
   data-icon="user"
   class="svg-inline--fa fa-user fa-w-14"
   role="img"
   viewBox="0 0 512 512"
   version="1.1"
   id="svg4"
   sodipodi:docname="user-solid.svg"
   width="512"
   height="512"
   inkscape:export-filename="C:\Applications\Projects\SuperCodingBall\src\assets\icons\user-solid.png"
   inkscape:export-xdpi="30"
   inkscape:export-ydpi="30"
   inkscape:version="1.1 (c68e22c387, 2021-05-23)"
   xmlns:inkscape="http://www.inkscape.org/namespaces/inkscape"
   xmlns:sodipodi="http://sodipodi.sourceforge.net/DTD/sodipodi-0.dtd"
   xmlns="http://www.w3.org/2000/svg"
   xmlns:svg="http://www.w3.org/2000/svg">
  <defs
     id="defs8" />
  <sodipodi:namedview
     id="namedview6"
     pagecolor="#ffffff"
     bordercolor="#666666"
     borderopacity="1.0"
     inkscape:pageshadow="2"
     inkscape:pageopacity="0.0"
     inkscape:pagecheckerboard="0"
     showgrid="false"
     width="512px"
     inkscape:snap-bbox="false"
     inkscape:bbox-paths="true"
     inkscape:bbox-nodes="true"
     inkscape:snap-bbox-edge-midpoints="true"
     inkscape:snap-bbox-midpoints="true"
     inkscape:snap-object-midpoints="false"
     inkscape:snap-center="false"
     inkscape:snap-page="true"
     inkscape:zoom="1.1214272"
     inkscape:cx="117.70715"
     inkscape:cy="263.50352"
     inkscape:window-width="1920"
     inkscape:window-height="1001"
     inkscape:window-x="-9"
     inkscape:window-y="-9"
     inkscape:window-maximized="1"
     inkscape:current-layer="svg4" />
  <path
     fill="currentColor"
     d="M 256,256 C 326.7,256 384,198.7 384,128 384,57.3 326.7,0 256,0 185.3,0 128,57.3 128,128 c 0,70.7 57.3,128 128,128 z m 102.39999,32 h -19.08571 c -25.37142,10.2 -53.6,16 -83.31428,16 -29.71428,0 -57.82857,-5.8 -83.31428,-16 H 153.6 C 68.799996,288 2.9999998e-6,348.2 2.9999998e-6,422.4 V 464 C 2.9999998e-6,491.983 24.571431,512 54.857144,512 H 457.14285 C 487.69786,512 512,491.26607 512,464 V 422.4 C 512,342.30182 434.48088,288 358.39999,288 Z"
     id="path2"
     sodipodi:nodetypes="sssssscscssssssss" />
</svg>
